<svg width="319" height="391" xmlns="http://www.w3.org/2000/svg" xmlns:xlink="http://www.w3.org/1999/xlink" xml:space="preserve" overflow="hidden"><defs><clipPath id="clip0"><rect x="0" y="0" width="319" height="391"/></clipPath><clipPath id="clip1"><rect x="0" y="0" width="318" height="391"/></clipPath><clipPath id="clip2"><rect x="0" y="0" width="318" height="391"/></clipPath><clipPath id="clip3"><rect x="80" y="50" width="191" height="203"/></clipPath><clipPath id="clip4"><rect x="0" y="0" width="318" height="391"/></clipPath><clipPath id="clip5"><rect x="80" y="50" width="191" height="203"/></clipPath><clipPath id="clip6"><rect x="0" y="0" width="318" height="391"/></clipPath><clipPath id="clip7"><rect x="80" y="50" width="191" height="203"/></clipPath><clipPath id="clip8"><rect x="0" y="0" width="318" height="391"/></clipPath><clipPath id="clip9"><rect x="80" y="50" width="191" height="203"/></clipPath><clipPath id="clip10"><rect x="0" y="0" width="318" height="391"/></clipPath><clipPath id="clip11"><rect x="0" y="0" width="318" height="391"/></clipPath><clipPath id="clip12"><rect x="0" y="0" width="318" height="391"/></clipPath><clipPath id="clip13"><rect x="0" y="0" width="318" height="391"/></clipPath><clipPath id="clip14"><rect x="0" y="0" width="318" height="391"/></clipPath><clipPath id="clip15"><rect x="0" y="0" width="318" height="391"/></clipPath><clipPath id="clip16"><rect x="0" y="0" width="318" height="391"/></clipPath><clipPath id="clip17"><rect x="0" y="0" width="318" height="391"/></clipPath><clipPath id="clip18"><rect x="0" y="0" width="318" height="391"/></clipPath><clipPath id="clip19"><rect x="0" y="0" width="318" height="391"/></clipPath><clipPath id="clip20"><rect x="0" y="0" width="318" height="391"/></clipPath><clipPath id="clip21"><rect x="0" y="0" width="318" height="391"/></clipPath><clipPath id="clip22"><rect x="0" y="0" width="318" height="391"/></clipPath><clipPath id="clip23"><rect x="0" y="0" width="318" height="391"/></clipPath><clipPath id="clip24"><rect x="0" y="0" width="318" height="391"/></clipPath></defs><g clip-path="url(#clip0)"><rect x="0" y="0" width="319" height="391" fill="#FFFFFF"/><g clip-path="url(#clip1)"><path d="M80.4999 209.507 268.5 209.507M80.4999 169.506 268.5 169.506M80.4999 130.504 268.5 130.504M80.4999 90.5032 268.5 90.5032M80.4999 50.5 268.5 50.5" stroke="#D9D9D9" stroke-width="3.4375" stroke-linejoin="round" stroke-miterlimit="10" fill="none"/></g><g clip-path="url(#clip2)"><path d="M80.4999 249.5 268.5 249.5" stroke="#D9D9D9" stroke-width="3.4375" stroke-linejoin="round" stroke-miterlimit="10" fill="none" fill-rule="evenodd"/></g><g clip-path="url(#clip3)"><path d="M93.5 50.5 120.504 88.5031 147.505 214.507 174.506 249.508 201.507 249.508 227.508 249.5 254.5 249.508" stroke="#4F81BD" stroke-width="4.58333" stroke-linecap="round" stroke-linejoin="round" stroke-miterlimit="10" fill="none"/></g><g clip-path="url(#clip4)"><path d="M104.499 50.4997C104.499 56.5746 99.5746 61.4993 93.4996 61.4993 87.4247 61.4993 82.5 56.5746 82.5 50.4997 82.5 44.4247 87.4247 39.5 93.4996 39.5 99.5746 39.5 104.499 44.4247 104.499 50.4997Z" stroke="#4F81BD" stroke-width="4.58333" stroke-linejoin="round" stroke-miterlimit="10" fill="#4F81BD"/><path d="M131.499 88.4998C131.499 94.5748 126.575 99.4995 120.5 99.4995 114.425 99.4995 109.5 94.5748 109.5 88.4998 109.5 82.4249 114.425 77.5002 120.5 77.5002 126.575 77.5002 131.499 82.4249 131.499 88.4998Z" stroke="#4F81BD" stroke-width="4.58333" stroke-linejoin="round" stroke-miterlimit="10" fill="#4F81BD"/><path d="M158.499 214.5C158.499 220.575 153.575 225.499 147.5 225.499 141.425 225.499 136.5 220.575 136.5 214.5 136.5 208.425 141.425 203.5 147.5 203.5 153.575 203.5 158.499 208.425 158.499 214.5Z" stroke="#4F81BD" stroke-width="4.58333" stroke-linejoin="round" stroke-miterlimit="10" fill="#4F81BD"/><path d="M185.499 249.5C185.499 255.575 180.575 260.499 174.5 260.499 168.425 260.499 163.5 255.575 163.5 249.5 163.5 243.425 168.425 238.5 174.5 238.5 180.575 238.5 185.499 243.425 185.499 249.5Z" stroke="#4F81BD" stroke-width="4.58333" stroke-linejoin="round" stroke-miterlimit="10" fill="#4F81BD"/><path d="M212.499 249.5C212.499 255.575 207.575 260.499 201.5 260.499 195.425 260.499 190.5 255.575 190.5 249.5 190.5 243.425 195.425 238.5 201.5 238.5 207.575 238.5 212.499 243.425 212.499 249.5Z" stroke="#4F81BD" stroke-width="4.58333" stroke-linejoin="round" stroke-miterlimit="10" fill="#4F81BD"/><path d="M238.499 249.5C238.499 255.575 233.575 260.499 227.5 260.499 221.425 260.499 216.5 255.575 216.5 249.5 216.5 243.425 221.425 238.5 227.5 238.5 233.575 238.5 238.499 243.425 238.499 249.5Z" stroke="#4F81BD" stroke-width="4.58333" stroke-linejoin="round" stroke-miterlimit="10" fill="#4F81BD"/><path d="M265.499 249.5C265.499 255.575 260.574 260.499 254.499 260.499 248.425 260.499 243.5 255.575 243.5 249.5 243.5 243.425 248.425 238.5 254.499 238.5 260.574 238.5 265.499 243.425 265.499 249.5Z" stroke="#4F81BD" stroke-width="4.58333" stroke-linejoin="round" stroke-miterlimit="10" fill="#4F81BD"/></g><g clip-path="url(#clip5)"><path d="M93.5 50.5 120.504 88.5031 147.505 214.507 174.506 249.508 201.507 249.508 227.508 249.5 254.5 249.508" stroke="#C0504D" stroke-width="4.58333" stroke-linecap="round" stroke-linejoin="round" stroke-miterlimit="10" fill="none"/></g><g clip-path="url(#clip6)"><path d="M104.499 50.4997C104.499 56.5746 99.5746 61.4993 93.4996 61.4993 87.4247 61.4993 82.5 56.5746 82.5 50.4997 82.5 44.4247 87.4247 39.5 93.4996 39.5 99.5746 39.5 104.499 44.4247 104.499 50.4997Z" stroke="#C0504D" stroke-width="4.58333" stroke-linejoin="round" stroke-miterlimit="10" fill="#C0504D"/><path d="M131.499 88.4998C131.499 94.5748 126.575 99.4995 120.5 99.4995 114.425 99.4995 109.5 94.5748 109.5 88.4998 109.5 82.4249 114.425 77.5002 120.5 77.5002 126.575 77.5002 131.499 82.4249 131.499 88.4998Z" stroke="#C0504D" stroke-width="4.58333" stroke-linejoin="round" stroke-miterlimit="10" fill="#C0504D"/><path d="M158.499 214.5C158.499 220.575 153.575 225.499 147.5 225.499 141.425 225.499 136.5 220.575 136.5 214.5 136.5 208.425 141.425 203.5 147.5 203.5 153.575 203.5 158.499 208.425 158.499 214.5Z" stroke="#C0504D" stroke-width="4.58333" stroke-linejoin="round" stroke-miterlimit="10" fill="#C0504D"/><path d="M185.499 249.5C185.499 255.575 180.575 260.499 174.5 260.499 168.425 260.499 163.5 255.575 163.5 249.5 163.5 243.425 168.425 238.5 174.5 238.5 180.575 238.5 185.499 243.425 185.499 249.5Z" stroke="#C0504D" stroke-width="4.58333" stroke-linejoin="round" stroke-miterlimit="10" fill="#C0504D"/><path d="M212.499 249.5C212.499 255.575 207.575 260.499 201.5 260.499 195.425 260.499 190.5 255.575 190.5 249.5 190.5 243.425 195.425 238.5 201.5 238.5 207.575 238.5 212.499 243.425 212.499 249.5Z" stroke="#C0504D" stroke-width="4.58333" stroke-linejoin="round" stroke-miterlimit="10" fill="#C0504D"/><path d="M238.499 249.5C238.499 255.575 233.575 260.499 227.5 260.499 221.425 260.499 216.5 255.575 216.5 249.5 216.5 243.425 221.425 238.5 227.5 238.5 233.575 238.5 238.499 243.425 238.499 249.5Z" stroke="#C0504D" stroke-width="4.58333" stroke-linejoin="round" stroke-miterlimit="10" fill="#C0504D"/><path d="M265.499 249.5C265.499 255.575 260.574 260.499 254.499 260.499 248.425 260.499 243.5 255.575 243.5 249.5 243.5 243.425 248.425 238.5 254.499 238.5 260.574 238.5 265.499 243.425 265.499 249.5Z" stroke="#C0504D" stroke-width="4.58333" stroke-linejoin="round" stroke-miterlimit="10" fill="#C0504D"/></g><g clip-path="url(#clip7)"><path d="M93.5 50.5 120.504 95.5033 147.505 216.507 174.506 247.508 201.507 248.508 227.508 249.5 254.5 249.508" stroke="#9BBB59" stroke-width="4.58333" stroke-linecap="round" stroke-linejoin="round" stroke-miterlimit="10" fill="none"/></g><g clip-path="url(#clip8)"><path d="M104.499 50.4997C104.499 56.5746 99.5746 61.4993 93.4996 61.4993 87.4247 61.4993 82.5 56.5746 82.5 50.4997 82.5 44.4247 87.4247 39.5 93.4996 39.5 99.5746 39.5 104.499 44.4247 104.499 50.4997Z" stroke="#9BBB59" stroke-width="4.58333" stroke-linejoin="round" stroke-miterlimit="10" fill="#9BBB59"/><path d="M131.499 95.4997C131.499 101.575 126.575 106.499 120.5 106.499 114.425 106.499 109.5 101.575 109.5 95.4997 109.5 89.4248 114.425 84.5001 120.5 84.5001 126.575 84.5001 131.499 89.4248 131.499 95.4997Z" stroke="#9BBB59" stroke-width="4.58333" stroke-linejoin="round" stroke-miterlimit="10" fill="#9BBB59"/><path d="M158.499 216.5C158.499 222.575 153.575 227.499 147.5 227.499 141.425 227.499 136.5 222.575 136.5 216.5 136.5 210.425 141.425 205.5 147.5 205.5 153.575 205.5 158.499 210.425 158.499 216.5Z" stroke="#9BBB59" stroke-width="4.58333" stroke-linejoin="round" stroke-miterlimit="10" fill="#9BBB59"/><path d="M185.499 247.5C185.499 253.575 180.575 258.499 174.5 258.499 168.425 258.499 163.5 253.575 163.5 247.5 163.5 241.425 168.425 236.5 174.5 236.5 180.575 236.5 185.499 241.425 185.499 247.5Z" stroke="#9BBB59" stroke-width="4.58333" stroke-linejoin="round" stroke-miterlimit="10" fill="#9BBB59"/><path d="M212.499 248.5C212.499 254.575 207.575 259.499 201.5 259.499 195.425 259.499 190.5 254.575 190.5 248.5 190.5 242.425 195.425 237.5 201.5 237.5 207.575 237.5 212.499 242.425 212.499 248.5Z" stroke="#9BBB59" stroke-width="4.58333" stroke-linejoin="round" stroke-miterlimit="10" fill="#9BBB59"/><path d="M238.499 249.5C238.499 255.575 233.575 260.499 227.5 260.499 221.425 260.499 216.5 255.575 216.5 249.5 216.5 243.425 221.425 238.5 227.5 238.5 233.575 238.5 238.499 243.425 238.499 249.5Z" stroke="#9BBB59" stroke-width="4.58333" stroke-linejoin="round" stroke-miterlimit="10" fill="#9BBB59"/><path d="M265.499 249.5C265.499 255.575 260.574 260.499 254.499 260.499 248.425 260.499 243.5 255.575 243.5 249.5 243.5 243.425 248.425 238.5 254.499 238.5 260.574 238.5 265.499 243.425 265.499 249.5Z" stroke="#9BBB59" stroke-width="4.58333" stroke-linejoin="round" stroke-miterlimit="10" fill="#9BBB59"/></g><g clip-path="url(#clip9)"><path d="M93.5 50.5 120.504 85.503 147.505 212.507 174.506 249.5 201.507 247.508 227.508 247.508 254.5 246.508" stroke="#8064A2" stroke-width="4.58333" stroke-linecap="round" stroke-linejoin="round" stroke-miterlimit="10" fill="none"/></g><g clip-path="url(#clip10)"><path d="M104.499 50.4997C104.499 56.5746 99.5746 61.4993 93.4996 61.4993 87.4247 61.4993 82.5 56.5746 82.5 50.4997 82.5 44.4247 87.4247 39.5 93.4996 39.5 99.5746 39.5 104.499 44.4247 104.499 50.4997Z" stroke="#8064A2" stroke-width="4.58333" stroke-linejoin="round" stroke-miterlimit="10" fill="#8064A2"/><path d="M131.499 85.4997C131.499 91.5747 126.575 96.4994 120.5 96.4994 114.425 96.4994 109.5 91.5747 109.5 85.4997 109.5 79.4248 114.425 74.5001 120.5 74.5001 126.575 74.5001 131.499 79.4248 131.499 85.4997Z" stroke="#8064A2" stroke-width="4.58333" stroke-linejoin="round" stroke-miterlimit="10" fill="#8064A2"/><path d="M158.499 212.5C158.499 218.575 153.575 223.499 147.5 223.499 141.425 223.499 136.5 218.575 136.5 212.5 136.5 206.425 141.425 201.5 147.5 201.5 153.575 201.5 158.499 206.425 158.499 212.5Z" stroke="#8064A2" stroke-width="4.58333" stroke-linejoin="round" stroke-miterlimit="10" fill="#8064A2"/><path d="M185.499 249.5C185.499 255.575 180.575 260.499 174.5 260.499 168.425 260.499 163.5 255.575 163.5 249.5 163.5 243.425 168.425 238.5 174.5 238.5 180.575 238.5 185.499 243.425 185.499 249.5Z" stroke="#8064A2" stroke-width="4.58333" stroke-linejoin="round" stroke-miterlimit="10" fill="#8064A2"/><path d="M212.499 247.5C212.499 253.575 207.575 258.499 201.5 258.499 195.425 258.499 190.5 253.575 190.5 247.5 190.5 241.425 195.425 236.5 201.5 236.5 207.575 236.5 212.499 241.425 212.499 247.5Z" stroke="#8064A2" stroke-width="4.58333" stroke-linejoin="round" stroke-miterlimit="10" fill="#8064A2"/><path d="M238.499 247.5C238.499 253.575 233.575 258.499 227.5 258.499 221.425 258.499 216.5 253.575 216.5 247.5 216.5 241.425 221.425 236.5 227.5 236.5 233.575 236.5 238.499 241.425 238.499 247.5Z" stroke="#8064A2" stroke-width="4.58333" stroke-linejoin="round" stroke-miterlimit="10" fill="#8064A2"/><path d="M265.499 246.5C265.499 252.575 260.574 257.499 254.499 257.499 248.425 257.499 243.5 252.575 243.5 246.5 243.5 240.425 248.425 235.5 254.499 235.5 260.574 235.5 265.499 240.425 265.499 246.5Z" stroke="#8064A2" stroke-width="4.58333" stroke-linejoin="round" stroke-miterlimit="10" fill="#8064A2"/></g><g clip-path="url(#clip11)"><text fill="#595959" font-family="Calibri,Calibri_MSFontService,sans-serif" font-weight="700" font-size="23" transform="matrix(1 0 0 1 29.7917 256)">0.0</text></g><g clip-path="url(#clip12)"><text fill="#595959" font-family="Calibri,Calibri_MSFontService,sans-serif" font-weight="700" font-size="23" transform="matrix(1 0 0 1 29.7917 217)">0.2</text></g><g clip-path="url(#clip13)"><text fill="#595959" font-family="Calibri,Calibri_MSFontService,sans-serif" font-weight="700" font-size="23" transform="matrix(1 0 0 1 29.7917 177)">0.4</text></g><g clip-path="url(#clip14)"><text fill="#595959" font-family="Calibri,Calibri_MSFontService,sans-serif" font-weight="700" font-size="23" transform="matrix(1 0 0 1 29.7917 137)">0.6</text></g><g clip-path="url(#clip15)"><text fill="#595959" font-family="Calibri,Calibri_MSFontService,sans-serif" font-weight="700" font-size="23" transform="matrix(1 0 0 1 29.7917 97)">0.8</text></g><g clip-path="url(#clip16)"><text fill="#595959" font-family="Calibri,Calibri_MSFontService,sans-serif" font-weight="700" font-size="23" transform="matrix(1 0 0 1 29.7917 57)">1.0</text></g><g clip-path="url(#clip17)"><text fill="#595959" font-family="Calibri,Calibri_MSFontService,sans-serif" font-weight="700" font-size="23" transform="matrix(1 0 0 1 88.0101 286)">1</text></g><g clip-path="url(#clip18)"><text fill="#595959" font-family="Calibri,Calibri_MSFontService,sans-serif" font-weight="700" font-size="23" transform="matrix(1 0 0 1 114.826 286)">2</text></g><g clip-path="url(#clip19)"><text fill="#595959" font-family="Calibri,Calibri_MSFontService,sans-serif" font-weight="700" font-size="23" transform="matrix(1 0 0 1 141.643 286)">3</text></g><g clip-path="url(#clip20)"><text fill="#595959" font-family="Calibri,Calibri_MSFontService,sans-serif" font-weight="700" font-size="23" transform="matrix(1 0 0 1 168.459 286)">4</text></g><g clip-path="url(#clip21)"><text fill="#595959" font-family="Calibri,Calibri_MSFontService,sans-serif" font-weight="700" font-size="23" transform="matrix(1 0 0 1 195.275 286)">5</text></g><g clip-path="url(#clip22)"><text fill="#595959" font-family="Calibri,Calibri_MSFontService,sans-serif" font-weight="700" font-size="23" transform="matrix(1 0 0 1 222.091 286)">6</text></g><g clip-path="url(#clip23)"><text fill="#595959" font-family="Calibri,Calibri_MSFontService,sans-serif" font-weight="700" font-size="23" transform="matrix(1 0 0 1 248.907 286)">7</text></g><g clip-path="url(#clip24)"><text fill="#595959" font-family="Calibri,Calibri_MSFontService,sans-serif" font-weight="700" font-size="23" transform="matrix(1 0 0 1 129.718 328)">Last IMFs</text></g></g></svg>