<svg width="218" height="218" xmlns="http://www.w3.org/2000/svg" xmlns:xlink="http://www.w3.org/1999/xlink" xml:space="preserve" overflow="hidden"><defs><clipPath id="clip0"><rect x="0" y="0" width="218" height="218"/></clipPath></defs><g clip-path="url(#clip0)"><path d="M0.20508-0.46143 218.205-0.46143 218.205 217.538 0.205083 217.538Z" fill="#9D9D9C"/><path d="M24.0969 108.077 193.904 108.077" stroke="#E83089" stroke-width="8.2032" stroke-linecap="round" stroke-miterlimit="10" stroke-opacity="0.15" fill="none"/><path d="M109 112.486C106.539 112.486 104.591 110.487 104.591 108.077 104.591 105.617 106.59 103.668 109 103.668 111.461 103.668 113.409 105.668 113.409 108.077 113.409 110.538 111.461 112.486 109 112.486Z" fill="#FFFFFF"/><path d="M109 104.437C110.999 104.437 112.64 106.077 112.64 108.077 112.64 110.076 110.999 111.718 109 111.718 107.001 111.718 105.36 110.076 105.36 108.077 105.36 106.077 107.001 104.437 109 104.437M109 102.899C106.129 102.899 103.821 105.206 103.821 108.077 103.821 110.948 106.129 113.255 109 113.255 111.871 113.255 114.179 110.948 114.179 108.077 114.179 105.206 111.871 102.899 109 102.899Z" fill="#9E0B29"/><path d="M29.2751 108.077C29.2751 110.937 26.9567 113.255 24.0969 113.255 21.237 113.255 18.9187 110.937 18.9187 108.077 18.9187 105.217 21.237 102.899 24.0969 102.899 26.9567 102.899 29.2751 105.217 29.2751 108.077Z" fill="#9E0B29"/><path d="M199.081 108.077C199.081 110.937 196.763 113.255 193.903 113.255 191.043 113.255 188.725 110.937 188.725 108.077 188.725 105.217 191.043 102.899 193.903 102.899 196.763 102.899 199.081 105.217 199.081 108.077Z" fill="#9E0B29"/><text fill="#050335" font-family="Arial,Arial_MSFontService,sans-serif" font-weight="400" font-size="24" transform="matrix(0.585298 0 0 0.512699 104.268 100)">t<tspan font-size="12" x="8.93043" y="0">0</tspan></text><path d="M48.7065 130.277 29.0189 130.277C26.3016 130.175 24.1482 127.919 24.2507 125.201 24.3533 122.587 26.404 120.485 29.0189 120.434L75.7771 120.434" stroke="#3785C6" stroke-width="0.512699" stroke-miterlimit="10" fill="none"/><path d="M74.8542 120.434 73.7262 118.587 73.7775 118.536 76.8025 119.716 79.9299 120.434 76.8025 121.151 73.7775 122.331 73.7262 122.279 74.8542 120.434Z" fill="#3785C6"/><path d="M171.036 130.277 109.718 130.277 52.9107 130.277" stroke="#3785C6" stroke-width="0.512699" stroke-miterlimit="10" fill="none"/><path d="M53.8335 130.277 54.9614 132.123 54.9102 132.174 51.8852 130.995 48.7065 130.277 51.834 129.559 54.8589 128.38 54.9102 128.432 53.8335 130.277Z" fill="#3785C6"/><path d="M125.714 120.434 190.417 120.434C193.134 120.331 195.441 122.484 195.493 125.201 195.595 127.919 193.442 130.226 190.724 130.277 190.622 130.277 190.519 130.277 190.417 130.277L175.189 130.277" stroke="#3785C6" stroke-width="0.512699" stroke-miterlimit="10" fill="none"/><path d="M176.112 130.277 177.24 132.123 177.189 132.174 174.164 130.995 171.036 130.277 174.164 129.559 177.189 128.38 177.24 128.432 176.112 130.277Z" fill="#3785C6"/><path d="M109.718 120.434 121.561 120.434" stroke="#3785C6" stroke-width="0.512699" stroke-miterlimit="10" fill="none"/><path d="M120.638 120.434 119.51 118.587 119.562 118.536 122.587 119.716 125.714 120.434 122.587 121.151 119.562 122.331 119.51 122.279 120.638 120.434Z" fill="#3785C6"/></g></svg>