<svg width="332" height="398" xmlns="http://www.w3.org/2000/svg" xmlns:xlink="http://www.w3.org/1999/xlink" xml:space="preserve" overflow="hidden"><defs><clipPath id="clip0"><rect x="0" y="0" width="332" height="398"/></clipPath><clipPath id="clip1"><rect x="0" y="0" width="331" height="397"/></clipPath><clipPath id="clip2"><rect x="0" y="0" width="331" height="397"/></clipPath><clipPath id="clip3"><rect x="80" y="50" width="204" height="208"/></clipPath><clipPath id="clip4"><rect x="0" y="0" width="331" height="397"/></clipPath><clipPath id="clip5"><rect x="80" y="50" width="204" height="208"/></clipPath><clipPath id="clip6"><rect x="0" y="0" width="331" height="397"/></clipPath><clipPath id="clip7"><rect x="80" y="50" width="204" height="208"/></clipPath><clipPath id="clip8"><rect x="0" y="0" width="331" height="397"/></clipPath><clipPath id="clip9"><rect x="80" y="50" width="204" height="208"/></clipPath><clipPath id="clip10"><rect x="0" y="0" width="331" height="397"/></clipPath><clipPath id="clip11"><rect x="0" y="0" width="331" height="397"/></clipPath><clipPath id="clip12"><rect x="0" y="0" width="331" height="397"/></clipPath><clipPath id="clip13"><rect x="0" y="0" width="331" height="397"/></clipPath><clipPath id="clip14"><rect x="0" y="0" width="331" height="397"/></clipPath><clipPath id="clip15"><rect x="0" y="0" width="331" height="397"/></clipPath><clipPath id="clip16"><rect x="0" y="0" width="331" height="397"/></clipPath><clipPath id="clip17"><rect x="0" y="0" width="331" height="397"/></clipPath><clipPath id="clip18"><rect x="0" y="0" width="331" height="397"/></clipPath><clipPath id="clip19"><rect x="0" y="0" width="331" height="397"/></clipPath><clipPath id="clip20"><rect x="0" y="0" width="331" height="397"/></clipPath><clipPath id="clip21"><rect x="0" y="0" width="331" height="397"/></clipPath><clipPath id="clip22"><rect x="0" y="0" width="331" height="397"/></clipPath><clipPath id="clip23"><rect x="0" y="0" width="331" height="397"/></clipPath><clipPath id="clip24"><rect x="0" y="0" width="331" height="397"/></clipPath><clipPath id="clip25"><rect x="0" y="0" width="331" height="397"/></clipPath><clipPath id="clip26"><rect x="0" y="0" width="331" height="397"/></clipPath></defs><g clip-path="url(#clip0)"><rect x="0" y="0" width="332" height="398" fill="#FFFFFF"/><g clip-path="url(#clip1)"><path d="M80.4999 214.507 281.5 214.507M80.4999 173.506 281.5 173.506M80.4999 132.505 281.5 132.505M80.4999 91.5032 281.5 91.5032M80.4999 50.5 281.5 50.5" stroke="#D9D9D9" stroke-width="3.4375" stroke-linejoin="round" stroke-miterlimit="10" fill="none"/></g><g clip-path="url(#clip2)"><path d="M80.4999 254.5 281.5 254.5" stroke="#D9D9D9" stroke-width="3.4375" stroke-linejoin="round" stroke-miterlimit="10" fill="none" fill-rule="evenodd"/></g><g clip-path="url(#clip3)"><path d="M94.9999 49.9998 123.004 158.005 152.005 249.008 181.006 252.008 209.007 255.008 238.008 255 267 255.008" stroke="#4F81BD" stroke-width="10.3125" stroke-linecap="round" stroke-linejoin="round" stroke-miterlimit="10" fill="none"/></g><g clip-path="url(#clip4)"><path d="M105.499 50.4997C105.499 56.5746 100.575 61.4993 94.4997 61.4993 88.4247 61.4993 83.5 56.5746 83.5 50.4997 83.5 44.4247 88.4247 39.5 94.4997 39.5 100.575 39.5 105.499 44.4247 105.499 50.4997Z" stroke="#4F81BD" stroke-width="3.4375" stroke-linejoin="round" stroke-miterlimit="10" fill="#4F81BD"/><path d="M134.499 158.5C134.499 164.575 129.574 169.499 123.5 169.499 117.425 169.499 112.5 164.575 112.5 158.5 112.5 152.425 117.425 147.5 123.5 147.5 129.574 147.5 134.499 152.425 134.499 158.5Z" stroke="#4F81BD" stroke-width="3.4375" stroke-linejoin="round" stroke-miterlimit="10" fill="#4F81BD"/><path d="M163.499 248.5C163.499 254.575 158.575 259.499 152.5 259.499 146.425 259.499 141.5 254.575 141.5 248.5 141.5 242.425 146.425 237.5 152.5 237.5 158.575 237.5 163.499 242.425 163.499 248.5Z" stroke="#4F81BD" stroke-width="3.4375" stroke-linejoin="round" stroke-miterlimit="10" fill="#4F81BD"/><path d="M191.499 252.5C191.499 258.575 186.575 263.499 180.5 263.499 174.425 263.499 169.5 258.575 169.5 252.5 169.5 246.425 174.425 241.5 180.5 241.5 186.575 241.5 191.499 246.425 191.499 252.5Z" stroke="#4F81BD" stroke-width="3.4375" stroke-linejoin="round" stroke-miterlimit="10" fill="#4F81BD"/><path d="M220.499 254.499C220.499 260.574 215.575 265.499 209.5 265.499 203.425 265.499 198.5 260.574 198.5 254.499 198.5 248.425 203.425 243.5 209.5 243.5 215.575 243.5 220.499 248.425 220.499 254.499Z" stroke="#4F81BD" stroke-width="3.4375" stroke-linejoin="round" stroke-miterlimit="10" fill="#4F81BD"/><path d="M249.499 254.499C249.499 260.574 244.575 265.499 238.5 265.499 232.425 265.499 227.5 260.574 227.5 254.499 227.5 248.425 232.425 243.5 238.5 243.5 244.575 243.5 249.499 248.425 249.499 254.499Z" stroke="#4F81BD" stroke-width="3.4375" stroke-linejoin="round" stroke-miterlimit="10" fill="#4F81BD"/><path d="M277.499 254.499C277.499 260.574 272.574 265.499 266.5 265.499 260.425 265.499 255.5 260.574 255.5 254.499 255.5 248.425 260.425 243.5 266.5 243.5 272.574 243.5 277.499 248.425 277.499 254.499Z" stroke="#4F81BD" stroke-width="3.4375" stroke-linejoin="round" stroke-miterlimit="10" fill="#4F81BD"/></g><g clip-path="url(#clip5)"><path d="M94.5 50.5 123.504 157.505 152.505 248.508 180.506 251.508 209.507 254.509 238.508 254.5 266.5 254.509" stroke="#C0504D" stroke-width="4.58333" stroke-linecap="round" stroke-linejoin="round" stroke-miterlimit="10" fill="none"/></g><g clip-path="url(#clip6)"><path d="M105.499 50.4997C105.499 56.5746 100.575 61.4993 94.4997 61.4993 88.4247 61.4993 83.5 56.5746 83.5 50.4997 83.5 44.4247 88.4247 39.5 94.4997 39.5 100.575 39.5 105.499 44.4247 105.499 50.4997Z" stroke="#C0504D" stroke-width="4.58333" stroke-linejoin="round" stroke-miterlimit="10" fill="#C0504D"/><path d="M134.499 157.5C134.499 163.575 129.574 168.499 123.5 168.499 117.425 168.499 112.5 163.575 112.5 157.5 112.5 151.425 117.425 146.5 123.5 146.5 129.574 146.5 134.499 151.425 134.499 157.5Z" stroke="#C0504D" stroke-width="4.58333" stroke-linejoin="round" stroke-miterlimit="10" fill="#C0504D"/><path d="M163.499 248.5C163.499 254.575 158.575 259.499 152.5 259.499 146.425 259.499 141.5 254.575 141.5 248.5 141.5 242.425 146.425 237.5 152.5 237.5 158.575 237.5 163.499 242.425 163.499 248.5Z" stroke="#C0504D" stroke-width="4.58333" stroke-linejoin="round" stroke-miterlimit="10" fill="#C0504D"/><path d="M191.499 251.5C191.499 257.575 186.575 262.499 180.5 262.499 174.425 262.499 169.5 257.575 169.5 251.5 169.5 245.425 174.425 240.5 180.5 240.5 186.575 240.5 191.499 245.425 191.499 251.5Z" stroke="#C0504D" stroke-width="4.58333" stroke-linejoin="round" stroke-miterlimit="10" fill="#C0504D"/><path d="M220.499 254.499C220.499 260.574 215.575 265.499 209.5 265.499 203.425 265.499 198.5 260.574 198.5 254.499 198.5 248.425 203.425 243.5 209.5 243.5 215.575 243.5 220.499 248.425 220.499 254.499Z" stroke="#C0504D" stroke-width="4.58333" stroke-linejoin="round" stroke-miterlimit="10" fill="#C0504D"/><path d="M249.499 254.499C249.499 260.574 244.575 265.499 238.5 265.499 232.425 265.499 227.5 260.574 227.5 254.499 227.5 248.425 232.425 243.5 238.5 243.5 244.575 243.5 249.499 248.425 249.499 254.499Z" stroke="#C0504D" stroke-width="4.58333" stroke-linejoin="round" stroke-miterlimit="10" fill="#C0504D"/><path d="M277.499 254.499C277.499 260.574 272.574 265.499 266.5 265.499 260.425 265.499 255.5 260.574 255.5 254.499 255.5 248.425 260.425 243.5 266.5 243.5 272.574 243.5 277.499 248.425 277.499 254.499Z" stroke="#C0504D" stroke-width="4.58333" stroke-linejoin="round" stroke-miterlimit="10" fill="#C0504D"/></g><g clip-path="url(#clip7)"><path d="M94.5 50.5 123.504 133.505 152.505 242.508 180.506 245.508 209.507 254.509 238.508 253.508 266.5 254.5" stroke="#9BBB59" stroke-width="4.58333" stroke-linecap="round" stroke-linejoin="round" stroke-miterlimit="10" fill="none"/></g><g clip-path="url(#clip8)"><path d="M105.499 50.4997C105.499 56.5746 100.575 61.4993 94.4997 61.4993 88.4247 61.4993 83.5 56.5746 83.5 50.4997 83.5 44.4247 88.4247 39.5 94.4997 39.5 100.575 39.5 105.499 44.4247 105.499 50.4997Z" stroke="#9BBB59" stroke-width="4.58333" stroke-linejoin="round" stroke-miterlimit="10" fill="#9BBB59"/><path d="M134.499 133.5C134.499 139.574 129.574 144.499 123.5 144.499 117.425 144.499 112.5 139.574 112.5 133.5 112.5 127.425 117.425 122.5 123.5 122.5 129.574 122.5 134.499 127.425 134.499 133.5Z" stroke="#9BBB59" stroke-width="4.58333" stroke-linejoin="round" stroke-miterlimit="10" fill="#9BBB59"/><path d="M163.499 242.5C163.499 248.575 158.575 253.499 152.5 253.499 146.425 253.499 141.5 248.575 141.5 242.5 141.5 236.425 146.425 231.5 152.5 231.5 158.575 231.5 163.499 236.425 163.499 242.5Z" stroke="#9BBB59" stroke-width="4.58333" stroke-linejoin="round" stroke-miterlimit="10" fill="#9BBB59"/><path d="M191.499 245.5C191.499 251.575 186.575 256.499 180.5 256.499 174.425 256.499 169.5 251.575 169.5 245.5 169.5 239.425 174.425 234.5 180.5 234.5 186.575 234.5 191.499 239.425 191.499 245.5Z" stroke="#9BBB59" stroke-width="4.58333" stroke-linejoin="round" stroke-miterlimit="10" fill="#9BBB59"/><path d="M220.499 254.499C220.499 260.574 215.575 265.499 209.5 265.499 203.425 265.499 198.5 260.574 198.5 254.499 198.5 248.425 203.425 243.5 209.5 243.5 215.575 243.5 220.499 248.425 220.499 254.499Z" stroke="#9BBB59" stroke-width="4.58333" stroke-linejoin="round" stroke-miterlimit="10" fill="#9BBB59"/><path d="M249.499 253.5C249.499 259.575 244.575 264.499 238.5 264.499 232.425 264.499 227.5 259.575 227.5 253.5 227.5 247.425 232.425 242.5 238.5 242.5 244.575 242.5 249.499 247.425 249.499 253.5Z" stroke="#9BBB59" stroke-width="4.58333" stroke-linejoin="round" stroke-miterlimit="10" fill="#9BBB59"/><path d="M277.499 254.499C277.499 260.574 272.574 265.499 266.5 265.499 260.425 265.499 255.5 260.574 255.5 254.499 255.5 248.425 260.425 243.5 266.5 243.5 272.574 243.5 277.499 248.425 277.499 254.499Z" stroke="#9BBB59" stroke-width="4.58333" stroke-linejoin="round" stroke-miterlimit="10" fill="#9BBB59"/></g><g clip-path="url(#clip9)"><path d="M94.5 50.5 123.504 103.504 152.505 225.508 180.506 236.508 209.507 249.508 238.508 254.5 266.5 251.508" stroke="#8064A2" stroke-width="4.58333" stroke-linecap="round" stroke-linejoin="round" stroke-miterlimit="10" fill="none"/></g><g clip-path="url(#clip10)"><path d="M105.499 50.4997C105.499 56.5746 100.575 61.4993 94.4997 61.4993 88.4247 61.4993 83.5 56.5746 83.5 50.4997 83.5 44.4247 88.4247 39.5 94.4997 39.5 100.575 39.5 105.499 44.4247 105.499 50.4997Z" stroke="#8064A2" stroke-width="4.58333" stroke-linejoin="round" stroke-miterlimit="10" fill="#8064A2"/><path d="M134.499 103.5C134.499 109.575 129.574 114.499 123.5 114.499 117.425 114.499 112.5 109.575 112.5 103.5 112.5 97.4247 117.425 92.5 123.5 92.5 129.574 92.5 134.499 97.4247 134.499 103.5Z" stroke="#8064A2" stroke-width="4.58333" stroke-linejoin="round" stroke-miterlimit="10" fill="#8064A2"/><path d="M163.499 225.5C163.499 231.575 158.575 236.499 152.5 236.499 146.425 236.499 141.5 231.575 141.5 225.5 141.5 219.425 146.425 214.5 152.5 214.5 158.575 214.5 163.499 219.425 163.499 225.5Z" stroke="#8064A2" stroke-width="4.58333" stroke-linejoin="round" stroke-miterlimit="10" fill="#8064A2"/><path d="M191.499 236.5C191.499 242.575 186.575 247.499 180.5 247.499 174.425 247.499 169.5 242.575 169.5 236.5 169.5 230.425 174.425 225.5 180.5 225.5 186.575 225.5 191.499 230.425 191.499 236.5Z" stroke="#8064A2" stroke-width="4.58333" stroke-linejoin="round" stroke-miterlimit="10" fill="#8064A2"/><path d="M220.499 249.5C220.499 255.575 215.575 260.499 209.5 260.499 203.425 260.499 198.5 255.575 198.5 249.5 198.5 243.425 203.425 238.5 209.5 238.5 215.575 238.5 220.499 243.425 220.499 249.5Z" stroke="#8064A2" stroke-width="4.58333" stroke-linejoin="round" stroke-miterlimit="10" fill="#8064A2"/><path d="M249.499 254.499C249.499 260.574 244.575 265.499 238.5 265.499 232.425 265.499 227.5 260.574 227.5 254.499 227.5 248.425 232.425 243.5 238.5 243.5 244.575 243.5 249.499 248.425 249.499 254.499Z" stroke="#8064A2" stroke-width="4.58333" stroke-linejoin="round" stroke-miterlimit="10" fill="#8064A2"/><path d="M277.499 251.5C277.499 257.575 272.574 262.499 266.5 262.499 260.425 262.499 255.5 257.575 255.5 251.5 255.5 245.425 260.425 240.5 266.5 240.5 272.574 240.5 277.499 245.425 277.499 251.5Z" stroke="#8064A2" stroke-width="4.58333" stroke-linejoin="round" stroke-miterlimit="10" fill="#8064A2"/></g><g clip-path="url(#clip11)"><text fill="#595959" font-family="Calibri,Calibri_MSFontService,sans-serif" font-weight="700" font-size="23" transform="matrix(1 0 0 1 47.5295 262)">0</text></g><g clip-path="url(#clip12)"><text fill="#595959" font-family="Calibri,Calibri_MSFontService,sans-serif" font-weight="700" font-size="23" transform="matrix(1 0 0 1 29.7917 221)">0.2</text></g><g clip-path="url(#clip13)"><text fill="#595959" font-family="Calibri,Calibri_MSFontService,sans-serif" font-weight="700" font-size="23" transform="matrix(1 0 0 1 29.7917 180)">0.4</text></g><g clip-path="url(#clip14)"><text fill="#595959" font-family="Calibri,Calibri_MSFontService,sans-serif" font-weight="700" font-size="23" transform="matrix(1 0 0 1 29.7917 139)">0.6</text></g><g clip-path="url(#clip15)"><text fill="#595959" font-family="Calibri,Calibri_MSFontService,sans-serif" font-weight="700" font-size="23" transform="matrix(1 0 0 1 29.7917 98)">0.8</text></g><g clip-path="url(#clip16)"><text fill="#595959" font-family="Calibri,Calibri_MSFontService,sans-serif" font-weight="700" font-size="23" transform="matrix(1 0 0 1 47.5295 57)">1</text></g><g clip-path="url(#clip17)"><text fill="#595959" font-family="Calibri,Calibri_MSFontService,sans-serif" font-weight="700" font-size="23" transform="matrix(6.12323e-17 -1 1 6.12323e-17 102.762 299)">0.1</text></g><g clip-path="url(#clip18)"><text fill="#595959" font-family="Calibri,Calibri_MSFontService,sans-serif" font-weight="700" font-size="23" transform="matrix(6.12323e-17 -1 1 6.12323e-17 131.444 299)">0.2</text></g><g clip-path="url(#clip19)"><text fill="#595959" font-family="Calibri,Calibri_MSFontService,sans-serif" font-weight="700" font-size="23" transform="matrix(6.12323e-17 -1 1 6.12323e-17 160.126 299)">0.3</text></g><g clip-path="url(#clip20)"><text fill="#595959" font-family="Calibri,Calibri_MSFontService,sans-serif" font-weight="700" font-size="23" transform="matrix(6.12323e-17 -1 1 6.12323e-17 188.809 299)">0.4</text></g><g clip-path="url(#clip21)"><text fill="#595959" font-family="Calibri,Calibri_MSFontService,sans-serif" font-weight="700" font-size="23" transform="matrix(6.12323e-17 -1 1 6.12323e-17 217.491 299)">0.5</text></g><g clip-path="url(#clip22)"><text fill="#595959" font-family="Calibri,Calibri_MSFontService,sans-serif" font-weight="700" font-size="23" transform="matrix(6.12323e-17 -1 1 6.12323e-17 246.174 299)">0.6</text></g><g clip-path="url(#clip23)"><text fill="#595959" font-family="Calibri,Calibri_MSFontService,sans-serif" font-weight="700" font-size="23" transform="matrix(6.12323e-17 -1 1 6.12323e-17 274.856 299)">0.7</text></g><g clip-path="url(#clip24)"><text fill="#595959" font-family="Calibri,Calibri_MSFontService,sans-serif" font-weight="700" font-size="23" transform="matrix(1 0 0 1 57.2881 325)">cut</text></g><g clip-path="url(#clip25)"><text fill="#595959" font-family="Calibri,Calibri_MSFontService,sans-serif" font-weight="700" font-size="23" transform="matrix(1 0 0 1 87.1256 325)">-</text></g><g clip-path="url(#clip26)"><text fill="#595959" font-family="Calibri,Calibri_MSFontService,sans-serif" font-weight="700" font-size="23" transform="matrix(1 0 0 1 94.1381 325)">off frequency</text></g></g></svg>