<svg width="369" height="469" xmlns="http://www.w3.org/2000/svg" xmlns:xlink="http://www.w3.org/1999/xlink" xml:space="preserve" overflow="hidden"><defs><clipPath id="clip0"><rect x="0" y="0" width="369" height="469"/></clipPath><clipPath id="clip1"><rect x="0" y="0" width="368" height="469"/></clipPath><clipPath id="clip2"><rect x="0" y="0" width="368" height="469"/></clipPath><clipPath id="clip3"><rect x="80" y="50" width="241" height="215"/></clipPath><clipPath id="clip4"><rect x="0" y="0" width="368" height="469"/></clipPath><clipPath id="clip5"><rect x="80" y="50" width="241" height="215"/></clipPath><clipPath id="clip6"><rect x="0" y="0" width="368" height="469"/></clipPath><clipPath id="clip7"><rect x="80" y="50" width="241" height="215"/></clipPath><clipPath id="clip8"><rect x="0" y="0" width="368" height="469"/></clipPath><clipPath id="clip9"><rect x="80" y="50" width="241" height="215"/></clipPath><clipPath id="clip10"><rect x="0" y="0" width="368" height="469"/></clipPath><clipPath id="clip11"><rect x="0" y="0" width="368" height="469"/></clipPath><clipPath id="clip12"><rect x="0" y="0" width="368" height="469"/></clipPath><clipPath id="clip13"><rect x="0" y="0" width="368" height="469"/></clipPath><clipPath id="clip14"><rect x="0" y="0" width="368" height="469"/></clipPath><clipPath id="clip15"><rect x="0" y="0" width="368" height="469"/></clipPath><clipPath id="clip16"><rect x="0" y="0" width="368" height="469"/></clipPath><clipPath id="clip17"><rect x="0" y="0" width="368" height="469"/></clipPath><clipPath id="clip18"><rect x="0" y="0" width="368" height="469"/></clipPath><clipPath id="clip19"><rect x="0" y="0" width="368" height="469"/></clipPath><clipPath id="clip20"><rect x="0" y="0" width="368" height="469"/></clipPath><clipPath id="clip21"><rect x="0" y="0" width="368" height="469"/></clipPath><clipPath id="clip22"><rect x="0" y="0" width="368" height="469"/></clipPath><clipPath id="clip23"><rect x="0" y="0" width="368" height="469"/></clipPath><clipPath id="clip24"><rect x="0" y="0" width="368" height="469"/></clipPath><clipPath id="clip25"><rect x="0" y="0" width="368" height="469"/></clipPath></defs><g clip-path="url(#clip0)"><rect x="0" y="0" width="369" height="469" fill="#FFFFFF"/><g clip-path="url(#clip1)"><path d="M80.4999 219.507 318.5 219.507M80.4999 177.506 318.5 177.506M80.4999 134.505 318.5 134.505M80.4999 92.5032 318.5 92.5032M80.4999 50.5 318.5 50.5" stroke="#D9D9D9" stroke-width="3.4375" stroke-linejoin="round" stroke-miterlimit="10" fill="none"/></g><g clip-path="url(#clip2)"><path d="M80.4999 261.5 318.5 261.5" stroke="#D9D9D9" stroke-width="3.4375" stroke-linejoin="round" stroke-miterlimit="10" fill="none" fill-rule="evenodd"/></g><g clip-path="url(#clip3)"><path d="M97.5001 168.506 131.504 59.5021 165.506 261.5 199.507 52.5019 233.508 257.509 267.509 50.5 301.5 256.509" stroke="#4F81BD" stroke-width="4.58333" stroke-linecap="round" stroke-linejoin="round" stroke-miterlimit="10" fill="none"/></g><g clip-path="url(#clip4)"><path d="M108.499 168.5C108.499 174.575 103.575 179.499 97.4998 179.499 91.4248 179.499 86.5001 174.575 86.5001 168.5 86.5001 162.425 91.4248 157.5 97.4998 157.5 103.575 157.5 108.499 162.425 108.499 168.5Z" stroke="#4F81BD" stroke-width="4.58333" stroke-linejoin="round" stroke-miterlimit="10" fill="#4F81BD"/><path d="M142.499 59.4996C142.499 65.5745 137.575 70.4992 131.5 70.4992 125.425 70.4992 120.5 65.5745 120.5 59.4996 120.5 53.4247 125.425 48.5 131.5 48.5 137.575 48.5 142.499 53.4247 142.499 59.4996Z" stroke="#4F81BD" stroke-width="4.58333" stroke-linejoin="round" stroke-miterlimit="10" fill="#4F81BD"/><path d="M176.499 261.5C176.499 267.575 171.575 272.499 165.5 272.499 159.425 272.499 154.5 267.575 154.5 261.5 154.5 255.425 159.425 250.5 165.5 250.5 171.575 250.5 176.499 255.425 176.499 261.5Z" stroke="#4F81BD" stroke-width="4.58333" stroke-linejoin="round" stroke-miterlimit="10" fill="#4F81BD"/><path d="M210.499 52.4997C210.499 58.5747 205.574 63.4994 199.499 63.4994 193.425 63.4994 188.5 58.5747 188.5 52.4997 188.5 46.4248 193.425 41.5001 199.499 41.5001 205.574 41.5001 210.499 46.4248 210.499 52.4997Z" stroke="#4F81BD" stroke-width="4.58333" stroke-linejoin="round" stroke-miterlimit="10" fill="#4F81BD"/><path d="M244.499 257.5C244.499 263.575 239.574 268.499 233.5 268.499 227.425 268.499 222.5 263.575 222.5 257.5 222.5 251.425 227.425 246.5 233.5 246.5 239.574 246.5 244.499 251.425 244.499 257.5Z" stroke="#4F81BD" stroke-width="4.58333" stroke-linejoin="round" stroke-miterlimit="10" fill="#4F81BD"/><path d="M278.499 50.4997C278.499 56.5746 273.575 61.4993 267.5 61.4993 261.425 61.4993 256.5 56.5746 256.5 50.4997 256.5 44.4247 261.425 39.5 267.5 39.5 273.575 39.5 278.499 44.4247 278.499 50.4997Z" stroke="#4F81BD" stroke-width="4.58333" stroke-linejoin="round" stroke-miterlimit="10" fill="#4F81BD"/><path d="M312.499 256.5C312.499 262.575 307.575 267.499 301.5 267.499 295.425 267.499 290.5 262.575 290.5 256.5 290.5 250.425 295.425 245.5 301.5 245.5 307.575 245.5 312.499 250.425 312.499 256.5Z" stroke="#4F81BD" stroke-width="4.58333" stroke-linejoin="round" stroke-miterlimit="10" fill="#4F81BD"/></g><g clip-path="url(#clip5)"><path d="M97.5001 150.505 131.504 60.5022 165.506 261.5 199.507 52.5019 233.508 257.509 267.509 50.5 301.5 257.509" stroke="#C0504D" stroke-width="4.58333" stroke-linecap="round" stroke-linejoin="round" stroke-miterlimit="10" fill="none"/></g><g clip-path="url(#clip6)"><path d="M108.499 150.5C108.499 156.575 103.575 161.499 97.4998 161.499 91.4248 161.499 86.5001 156.575 86.5001 150.5 86.5001 144.425 91.4248 139.5 97.4998 139.5 103.575 139.5 108.499 144.425 108.499 150.5Z" stroke="#C0504D" stroke-width="4.58333" stroke-linejoin="round" stroke-miterlimit="10" fill="#C0504D"/><path d="M142.499 60.4996C142.499 66.5746 137.575 71.4993 131.5 71.4993 125.425 71.4993 120.5 66.5746 120.5 60.4996 120.5 54.4247 125.425 49.5 131.5 49.5 137.575 49.5 142.499 54.4247 142.499 60.4996Z" stroke="#C0504D" stroke-width="4.58333" stroke-linejoin="round" stroke-miterlimit="10" fill="#C0504D"/><path d="M176.499 261.5C176.499 267.575 171.575 272.499 165.5 272.499 159.425 272.499 154.5 267.575 154.5 261.5 154.5 255.425 159.425 250.5 165.5 250.5 171.575 250.5 176.499 255.425 176.499 261.5Z" stroke="#C0504D" stroke-width="4.58333" stroke-linejoin="round" stroke-miterlimit="10" fill="#C0504D"/><path d="M210.499 52.4997C210.499 58.5747 205.574 63.4994 199.499 63.4994 193.425 63.4994 188.5 58.5747 188.5 52.4997 188.5 46.4248 193.425 41.5001 199.499 41.5001 205.574 41.5001 210.499 46.4248 210.499 52.4997Z" stroke="#C0504D" stroke-width="4.58333" stroke-linejoin="round" stroke-miterlimit="10" fill="#C0504D"/><path d="M244.499 257.5C244.499 263.575 239.574 268.499 233.5 268.499 227.425 268.499 222.5 263.575 222.5 257.5 222.5 251.425 227.425 246.5 233.5 246.5 239.574 246.5 244.499 251.425 244.499 257.5Z" stroke="#C0504D" stroke-width="4.58333" stroke-linejoin="round" stroke-miterlimit="10" fill="#C0504D"/><path d="M278.499 50.4997C278.499 56.5746 273.575 61.4993 267.5 61.4993 261.425 61.4993 256.5 56.5746 256.5 50.4997 256.5 44.4247 261.425 39.5 267.5 39.5 273.575 39.5 278.499 44.4247 278.499 50.4997Z" stroke="#C0504D" stroke-width="4.58333" stroke-linejoin="round" stroke-miterlimit="10" fill="#C0504D"/><path d="M312.499 257.5C312.499 263.575 307.575 268.499 301.5 268.499 295.425 268.499 290.5 263.575 290.5 257.5 290.5 251.425 295.425 246.5 301.5 246.5 307.575 246.5 312.499 251.425 312.499 257.5Z" stroke="#C0504D" stroke-width="4.58333" stroke-linejoin="round" stroke-miterlimit="10" fill="#C0504D"/></g><g clip-path="url(#clip7)"><path d="M97.5001 50.5 131.504 233.508 165.506 261.5 199.507 171.506 233.508 170.506 267.509 160.505 301.5 165.506" stroke="#9BBB59" stroke-width="4.58333" stroke-linecap="round" stroke-linejoin="round" stroke-miterlimit="10" fill="none"/></g><g clip-path="url(#clip8)"><path d="M108.499 50.4997C108.499 56.5746 103.575 61.4993 97.4998 61.4993 91.4248 61.4993 86.5001 56.5746 86.5001 50.4997 86.5001 44.4247 91.4248 39.5 97.4998 39.5 103.575 39.5 108.499 44.4247 108.499 50.4997Z" stroke="#9BBB59" stroke-width="4.58333" stroke-linejoin="round" stroke-miterlimit="10" fill="#9BBB59"/><path d="M142.499 233.5C142.499 239.574 137.575 244.499 131.5 244.499 125.425 244.499 120.5 239.574 120.5 233.5 120.5 227.425 125.425 222.5 131.5 222.5 137.575 222.5 142.499 227.425 142.499 233.5Z" stroke="#9BBB59" stroke-width="4.58333" stroke-linejoin="round" stroke-miterlimit="10" fill="#9BBB59"/><path d="M176.499 261.5C176.499 267.575 171.575 272.499 165.5 272.499 159.425 272.499 154.5 267.575 154.5 261.5 154.5 255.425 159.425 250.5 165.5 250.5 171.575 250.5 176.499 255.425 176.499 261.5Z" stroke="#9BBB59" stroke-width="4.58333" stroke-linejoin="round" stroke-miterlimit="10" fill="#9BBB59"/><path d="M210.499 171.5C210.499 177.575 205.574 182.499 199.499 182.499 193.425 182.499 188.5 177.575 188.5 171.5 188.5 165.425 193.425 160.5 199.499 160.5 205.574 160.5 210.499 165.425 210.499 171.5Z" stroke="#9BBB59" stroke-width="4.58333" stroke-linejoin="round" stroke-miterlimit="10" fill="#9BBB59"/><path d="M244.499 170.5C244.499 176.575 239.574 181.499 233.5 181.499 227.425 181.499 222.5 176.575 222.5 170.5 222.5 164.425 227.425 159.5 233.5 159.5 239.574 159.5 244.499 164.425 244.499 170.5Z" stroke="#9BBB59" stroke-width="4.58333" stroke-linejoin="round" stroke-miterlimit="10" fill="#9BBB59"/><path d="M278.499 160.5C278.499 166.575 273.575 171.499 267.5 171.499 261.425 171.499 256.5 166.575 256.5 160.5 256.5 154.425 261.425 149.5 267.5 149.5 273.575 149.5 278.499 154.425 278.499 160.5Z" stroke="#9BBB59" stroke-width="4.58333" stroke-linejoin="round" stroke-miterlimit="10" fill="#9BBB59"/><path d="M312.499 165.5C312.499 171.575 307.575 176.499 301.5 176.499 295.425 176.499 290.5 171.575 290.5 165.5 290.5 159.425 295.425 154.5 301.5 154.5 307.575 154.5 312.499 159.425 312.499 165.5Z" stroke="#9BBB59" stroke-width="4.58333" stroke-linejoin="round" stroke-miterlimit="10" fill="#9BBB59"/></g><g clip-path="url(#clip9)"><path d="M97.5001 128.504 131.504 62.5022 165.506 261.5 199.507 52.5019 233.508 252.508 267.509 50.5 301.5 251.508" stroke="#8064A2" stroke-width="4.58333" stroke-linecap="round" stroke-linejoin="round" stroke-miterlimit="10" fill="none"/></g><g clip-path="url(#clip10)"><path d="M108.499 128.5C108.499 134.575 103.575 139.499 97.4998 139.499 91.4248 139.499 86.5001 134.575 86.5001 128.5 86.5001 122.425 91.4248 117.5 97.4998 117.5 103.575 117.5 108.499 122.425 108.499 128.5Z" stroke="#8064A2" stroke-width="4.58333" stroke-linejoin="round" stroke-miterlimit="10" fill="#8064A2"/><path d="M142.499 62.4997C142.499 68.5746 137.575 73.4993 131.5 73.4993 125.425 73.4993 120.5 68.5746 120.5 62.4997 120.5 56.4248 125.425 51.5001 131.5 51.5001 137.575 51.5001 142.499 56.4248 142.499 62.4997Z" stroke="#8064A2" stroke-width="4.58333" stroke-linejoin="round" stroke-miterlimit="10" fill="#8064A2"/><path d="M176.499 261.5C176.499 267.575 171.575 272.499 165.5 272.499 159.425 272.499 154.5 267.575 154.5 261.5 154.5 255.425 159.425 250.5 165.5 250.5 171.575 250.5 176.499 255.425 176.499 261.5Z" stroke="#8064A2" stroke-width="4.58333" stroke-linejoin="round" stroke-miterlimit="10" fill="#8064A2"/><path d="M210.499 52.4997C210.499 58.5747 205.574 63.4994 199.499 63.4994 193.425 63.4994 188.5 58.5747 188.5 52.4997 188.5 46.4248 193.425 41.5001 199.499 41.5001 205.574 41.5001 210.499 46.4248 210.499 52.4997Z" stroke="#8064A2" stroke-width="4.58333" stroke-linejoin="round" stroke-miterlimit="10" fill="#8064A2"/><path d="M244.499 252.5C244.499 258.575 239.574 263.499 233.5 263.499 227.425 263.499 222.5 258.575 222.5 252.5 222.5 246.425 227.425 241.5 233.5 241.5 239.574 241.5 244.499 246.425 244.499 252.5Z" stroke="#8064A2" stroke-width="4.58333" stroke-linejoin="round" stroke-miterlimit="10" fill="#8064A2"/><path d="M278.499 50.4997C278.499 56.5746 273.575 61.4993 267.5 61.4993 261.425 61.4993 256.5 56.5746 256.5 50.4997 256.5 44.4247 261.425 39.5 267.5 39.5 273.575 39.5 278.499 44.4247 278.499 50.4997Z" stroke="#8064A2" stroke-width="4.58333" stroke-linejoin="round" stroke-miterlimit="10" fill="#8064A2"/><path d="M312.499 251.5C312.499 257.575 307.575 262.499 301.5 262.499 295.425 262.499 290.5 257.575 290.5 251.5 290.5 245.425 295.425 240.5 301.5 240.5 307.575 240.5 312.499 245.425 312.499 251.5Z" stroke="#8064A2" stroke-width="4.58333" stroke-linejoin="round" stroke-miterlimit="10" fill="#8064A2"/></g><g clip-path="url(#clip11)"><text fill="#595959" font-family="Calibri,Calibri_MSFontService,sans-serif" font-weight="700" font-size="23" transform="matrix(1 0 0 1 47.5295 269)">0</text></g><g clip-path="url(#clip12)"><text fill="#595959" font-family="Calibri,Calibri_MSFontService,sans-serif" font-weight="700" font-size="23" transform="matrix(1 0 0 1 29.7917 226)">0.2</text></g><g clip-path="url(#clip13)"><text fill="#595959" font-family="Calibri,Calibri_MSFontService,sans-serif" font-weight="700" font-size="23" transform="matrix(1 0 0 1 29.7917 184)">0.4</text></g><g clip-path="url(#clip14)"><text fill="#595959" font-family="Calibri,Calibri_MSFontService,sans-serif" font-weight="700" font-size="23" transform="matrix(1 0 0 1 29.7917 142)">0.6</text></g><g clip-path="url(#clip15)"><text fill="#595959" font-family="Calibri,Calibri_MSFontService,sans-serif" font-weight="700" font-size="23" transform="matrix(1 0 0 1 29.7917 99)">0.8</text></g><g clip-path="url(#clip16)"><text fill="#595959" font-family="Calibri,Calibri_MSFontService,sans-serif" font-weight="700" font-size="23" transform="matrix(1 0 0 1 47.5295 57)">1</text></g><g clip-path="url(#clip17)"><text fill="#595959" font-family="Calibri,Calibri_MSFontService,sans-serif" font-weight="700" font-size="23" transform="matrix(6.12323e-17 -1 1 6.12323e-17 105.413 319)">2 (2)</text></g><g clip-path="url(#clip18)"><text fill="#595959" font-family="Calibri,Calibri_MSFontService,sans-serif" font-weight="700" font-size="23" transform="matrix(6.12323e-17 -1 1 6.12323e-17 139.399 342)">3 (2+3)</text></g><g clip-path="url(#clip19)"><text fill="#595959" font-family="Calibri,Calibri_MSFontService,sans-serif" font-weight="700" font-size="23" transform="matrix(6.12323e-17 -1 1 6.12323e-17 173.385 319)">3 (3)</text></g><g clip-path="url(#clip20)"><text fill="#595959" font-family="Calibri,Calibri_MSFontService,sans-serif" font-weight="700" font-size="23" transform="matrix(6.12323e-17 -1 1 6.12323e-17 207.371 342)">4 (3+4)</text></g><g clip-path="url(#clip21)"><text fill="#595959" font-family="Calibri,Calibri_MSFontService,sans-serif" font-weight="700" font-size="23" transform="matrix(6.12323e-17 -1 1 6.12323e-17 241.357 319)">4 (4)</text></g><g clip-path="url(#clip22)"><text fill="#595959" font-family="Calibri,Calibri_MSFontService,sans-serif" font-weight="700" font-size="23" transform="matrix(6.12323e-17 -1 1 6.12323e-17 275.343 342)">5 (4+5)</text></g><g clip-path="url(#clip23)"><text fill="#595959" font-family="Calibri,Calibri_MSFontService,sans-serif" font-weight="700" font-size="23" transform="matrix(6.12323e-17 -1 1 6.12323e-17 309.329 319)">5 (5)</text></g><g clip-path="url(#clip24)"><text fill="#595959" font-family="Calibri,Calibri_MSFontService,sans-serif" font-weight="700" font-size="23" transform="matrix(1 0 0 1 95.9869 371)">Number of modes (Last </text></g><g clip-path="url(#clip25)"><text fill="#595959" font-family="Calibri,Calibri_MSFontService,sans-serif" font-weight="700" font-size="23" transform="matrix(1 0 0 1 171.612 399)">modes)</text></g></g></svg>