<svg width="352" height="398" xmlns="http://www.w3.org/2000/svg" xmlns:xlink="http://www.w3.org/1999/xlink" xml:space="preserve" overflow="hidden"><defs><clipPath id="clip0"><rect x="0" y="0" width="352" height="398"/></clipPath><clipPath id="clip1"><rect x="0" y="0" width="352" height="397"/></clipPath><clipPath id="clip2"><rect x="0" y="0" width="352" height="397"/></clipPath><clipPath id="clip3"><rect x="80" y="50" width="225" height="209"/></clipPath><clipPath id="clip4"><rect x="0" y="0" width="352" height="397"/></clipPath><clipPath id="clip5"><rect x="80" y="50" width="225" height="209"/></clipPath><clipPath id="clip6"><rect x="0" y="0" width="352" height="397"/></clipPath><clipPath id="clip7"><rect x="80" y="50" width="225" height="209"/></clipPath><clipPath id="clip8"><rect x="0" y="0" width="352" height="397"/></clipPath><clipPath id="clip9"><rect x="80" y="50" width="225" height="209"/></clipPath><clipPath id="clip10"><rect x="0" y="0" width="352" height="397"/></clipPath><clipPath id="clip11"><rect x="0" y="0" width="352" height="397"/></clipPath><clipPath id="clip12"><rect x="0" y="0" width="352" height="397"/></clipPath><clipPath id="clip13"><rect x="0" y="0" width="352" height="397"/></clipPath><clipPath id="clip14"><rect x="0" y="0" width="352" height="397"/></clipPath><clipPath id="clip15"><rect x="0" y="0" width="352" height="397"/></clipPath><clipPath id="clip16"><rect x="0" y="0" width="352" height="397"/></clipPath><clipPath id="clip17"><rect x="0" y="0" width="352" height="397"/></clipPath><clipPath id="clip18"><rect x="0" y="0" width="352" height="397"/></clipPath><clipPath id="clip19"><rect x="0" y="0" width="352" height="397"/></clipPath><clipPath id="clip20"><rect x="0" y="0" width="352" height="397"/></clipPath><clipPath id="clip21"><rect x="0" y="0" width="352" height="397"/></clipPath><clipPath id="clip22"><rect x="0" y="0" width="352" height="397"/></clipPath><clipPath id="clip23"><rect x="0" y="0" width="352" height="397"/></clipPath><clipPath id="clip24"><rect x="0" y="0" width="352" height="397"/></clipPath></defs><g clip-path="url(#clip0)"><rect x="0" y="0" width="352" height="398" fill="#FFFFFF"/><g clip-path="url(#clip1)"><path d="M80.4999 215.507 302.5 215.507M80.4999 173.506 302.5 173.506M80.4999 132.505 302.5 132.505M80.4999 91.5032 302.5 91.5032M80.4999 50.5 302.5 50.5" stroke="#D9D9D9" stroke-width="3.4375" stroke-linejoin="round" stroke-miterlimit="10" fill="none"/></g><g clip-path="url(#clip2)"><path d="M80.4999 256.5 302.5 256.5" stroke="#D9D9D9" stroke-width="3.4375" stroke-linejoin="round" stroke-miterlimit="10" fill="none" fill-rule="evenodd"/></g><g clip-path="url(#clip3)"><path d="M96.5001 256.5 127.504 90.5032 159.505 63.5023 191.506 53.5019 222.507 50.5 254.509 50.5 286.5 50.5" stroke="#4F81BD" stroke-width="4.58333" stroke-linecap="round" stroke-linejoin="round" stroke-miterlimit="10" fill="none"/></g><g clip-path="url(#clip4)"><path d="M107.499 256.5C107.499 262.575 102.575 267.499 96.4997 267.499 90.4248 267.499 85.5001 262.575 85.5001 256.5 85.5001 250.425 90.4248 245.5 96.4997 245.5 102.575 245.5 107.499 250.425 107.499 256.5Z" stroke="#4F81BD" stroke-width="4.58333" stroke-linejoin="round" stroke-miterlimit="10" fill="#4F81BD"/><path d="M138.499 90.4995C138.499 96.5745 133.575 101.499 127.5 101.499 121.425 101.499 116.5 96.5745 116.5 90.4995 116.5 84.4246 121.425 79.4999 127.5 79.4999 133.575 79.4999 138.499 84.4246 138.499 90.4995Z" stroke="#4F81BD" stroke-width="4.58333" stroke-linejoin="round" stroke-miterlimit="10" fill="#4F81BD"/><path d="M170.499 63.4997C170.499 69.5747 165.575 74.4994 159.5 74.4994 153.425 74.4994 148.5 69.5747 148.5 63.4997 148.5 57.4248 153.425 52.5001 159.5 52.5001 165.575 52.5001 170.499 57.4248 170.499 63.4997Z" stroke="#4F81BD" stroke-width="4.58333" stroke-linejoin="round" stroke-miterlimit="10" fill="#4F81BD"/><path d="M202.499 53.4998C202.499 59.5747 197.575 64.4994 191.5 64.4994 185.425 64.4994 180.5 59.5747 180.5 53.4998 180.5 47.4248 185.425 42.5001 191.5 42.5001 197.575 42.5001 202.499 47.4248 202.499 53.4998Z" stroke="#4F81BD" stroke-width="4.58333" stroke-linejoin="round" stroke-miterlimit="10" fill="#4F81BD"/><path d="M233.499 50.4997C233.499 56.5746 228.574 61.4993 222.5 61.4993 216.425 61.4993 211.5 56.5746 211.5 50.4997 211.5 44.4247 216.425 39.5 222.5 39.5 228.574 39.5 233.499 44.4247 233.499 50.4997Z" stroke="#4F81BD" stroke-width="4.58333" stroke-linejoin="round" stroke-miterlimit="10" fill="#4F81BD"/><path d="M265.499 50.4997C265.499 56.5746 260.574 61.4993 254.499 61.4993 248.425 61.4993 243.5 56.5746 243.5 50.4997 243.5 44.4247 248.425 39.5 254.499 39.5 260.574 39.5 265.499 44.4247 265.499 50.4997Z" stroke="#4F81BD" stroke-width="4.58333" stroke-linejoin="round" stroke-miterlimit="10" fill="#4F81BD"/><path d="M297.499 50.4997C297.499 56.5746 292.575 61.4993 286.5 61.4993 280.425 61.4993 275.5 56.5746 275.5 50.4997 275.5 44.4247 280.425 39.5 286.5 39.5 292.575 39.5 297.499 44.4247 297.499 50.4997Z" stroke="#4F81BD" stroke-width="4.58333" stroke-linejoin="round" stroke-miterlimit="10" fill="#4F81BD"/></g><g clip-path="url(#clip5)"><path d="M96.5001 256.5 127.504 116.504 159.505 73.5026 191.506 56.502 222.507 50.5 254.509 50.5 286.5 50.5" stroke="#C0504D" stroke-width="4.58333" stroke-linecap="round" stroke-linejoin="round" stroke-miterlimit="10" fill="none"/></g><g clip-path="url(#clip6)"><path d="M107.499 256.5C107.499 262.575 102.575 267.499 96.4997 267.499 90.4248 267.499 85.5001 262.575 85.5001 256.5 85.5001 250.425 90.4248 245.5 96.4997 245.5 102.575 245.5 107.499 250.425 107.499 256.5Z" stroke="#C0504D" stroke-width="4.58333" stroke-linejoin="round" stroke-miterlimit="10" fill="#C0504D"/><path d="M138.499 116.5C138.499 122.575 133.575 127.499 127.5 127.499 121.425 127.499 116.5 122.575 116.5 116.5 116.5 110.425 121.425 105.5 127.5 105.5 133.575 105.5 138.499 110.425 138.499 116.5Z" stroke="#C0504D" stroke-width="4.58333" stroke-linejoin="round" stroke-miterlimit="10" fill="#C0504D"/><path d="M170.499 73.4997C170.499 79.5746 165.575 84.4993 159.5 84.4993 153.425 84.4993 148.5 79.5746 148.5 73.4997 148.5 67.4248 153.425 62.5001 159.5 62.5001 165.575 62.5001 170.499 67.4248 170.499 73.4997Z" stroke="#C0504D" stroke-width="4.58333" stroke-linejoin="round" stroke-miterlimit="10" fill="#C0504D"/><path d="M202.499 56.4995C202.499 62.5744 197.575 67.4991 191.5 67.4991 185.425 67.4991 180.5 62.5744 180.5 56.4995 180.5 50.4246 185.425 45.4999 191.5 45.4999 197.575 45.4999 202.499 50.4246 202.499 56.4995Z" stroke="#C0504D" stroke-width="4.58333" stroke-linejoin="round" stroke-miterlimit="10" fill="#C0504D"/><path d="M233.499 50.4997C233.499 56.5746 228.574 61.4993 222.5 61.4993 216.425 61.4993 211.5 56.5746 211.5 50.4997 211.5 44.4247 216.425 39.5 222.5 39.5 228.574 39.5 233.499 44.4247 233.499 50.4997Z" stroke="#C0504D" stroke-width="4.58333" stroke-linejoin="round" stroke-miterlimit="10" fill="#C0504D"/><path d="M265.499 50.4997C265.499 56.5746 260.574 61.4993 254.499 61.4993 248.425 61.4993 243.5 56.5746 243.5 50.4997 243.5 44.4247 248.425 39.5 254.499 39.5 260.574 39.5 265.499 44.4247 265.499 50.4997Z" stroke="#C0504D" stroke-width="4.58333" stroke-linejoin="round" stroke-miterlimit="10" fill="#C0504D"/><path d="M297.499 50.4997C297.499 56.5746 292.575 61.4993 286.5 61.4993 280.425 61.4993 275.5 56.5746 275.5 50.4997 275.5 44.4247 280.425 39.5 286.5 39.5 292.575 39.5 297.499 44.4247 297.499 50.4997Z" stroke="#C0504D" stroke-width="4.58333" stroke-linejoin="round" stroke-miterlimit="10" fill="#C0504D"/></g><g clip-path="url(#clip7)"><path d="M96.5001 256.5 127.504 104.504 159.505 73.5026 191.506 57.5021 222.507 50.5 254.509 50.5 286.5 50.5" stroke="#9BBB59" stroke-width="4.58333" stroke-linecap="round" stroke-linejoin="round" stroke-miterlimit="10" fill="none"/></g><g clip-path="url(#clip8)"><path d="M107.499 256.5C107.499 262.575 102.575 267.499 96.4997 267.499 90.4248 267.499 85.5001 262.575 85.5001 256.5 85.5001 250.425 90.4248 245.5 96.4997 245.5 102.575 245.5 107.499 250.425 107.499 256.5Z" stroke="#9BBB59" stroke-width="4.58333" stroke-linejoin="round" stroke-miterlimit="10" fill="#9BBB59"/><path d="M138.499 104.5C138.499 110.575 133.575 115.499 127.5 115.499 121.425 115.499 116.5 110.575 116.5 104.5 116.5 98.4247 121.425 93.5 127.5 93.5 133.575 93.5 138.499 98.4247 138.499 104.5Z" stroke="#9BBB59" stroke-width="4.58333" stroke-linejoin="round" stroke-miterlimit="10" fill="#9BBB59"/><path d="M170.499 73.4997C170.499 79.5746 165.575 84.4993 159.5 84.4993 153.425 84.4993 148.5 79.5746 148.5 73.4997 148.5 67.4248 153.425 62.5001 159.5 62.5001 165.575 62.5001 170.499 67.4248 170.499 73.4997Z" stroke="#9BBB59" stroke-width="4.58333" stroke-linejoin="round" stroke-miterlimit="10" fill="#9BBB59"/><path d="M202.499 57.4995C202.499 63.5745 197.575 68.4992 191.5 68.4992 185.425 68.4992 180.5 63.5745 180.5 57.4995 180.5 51.4246 185.425 46.4999 191.5 46.4999 197.575 46.4999 202.499 51.4246 202.499 57.4995Z" stroke="#9BBB59" stroke-width="4.58333" stroke-linejoin="round" stroke-miterlimit="10" fill="#9BBB59"/><path d="M233.499 50.4997C233.499 56.5746 228.574 61.4993 222.5 61.4993 216.425 61.4993 211.5 56.5746 211.5 50.4997 211.5 44.4247 216.425 39.5 222.5 39.5 228.574 39.5 233.499 44.4247 233.499 50.4997Z" stroke="#9BBB59" stroke-width="4.58333" stroke-linejoin="round" stroke-miterlimit="10" fill="#9BBB59"/><path d="M265.499 50.4997C265.499 56.5746 260.574 61.4993 254.499 61.4993 248.425 61.4993 243.5 56.5746 243.5 50.4997 243.5 44.4247 248.425 39.5 254.499 39.5 260.574 39.5 265.499 44.4247 265.499 50.4997Z" stroke="#9BBB59" stroke-width="4.58333" stroke-linejoin="round" stroke-miterlimit="10" fill="#9BBB59"/><path d="M297.499 50.4997C297.499 56.5746 292.575 61.4993 286.5 61.4993 280.425 61.4993 275.5 56.5746 275.5 50.4997 275.5 44.4247 280.425 39.5 286.5 39.5 292.575 39.5 297.499 44.4247 297.499 50.4997Z" stroke="#9BBB59" stroke-width="4.58333" stroke-linejoin="round" stroke-miterlimit="10" fill="#9BBB59"/></g><g clip-path="url(#clip9)"><path d="M96.5001 256.5 127.504 91.5032 159.505 65.5023 191.506 54.502 222.507 50.5 254.509 50.5 286.5 50.5" stroke="#8064A2" stroke-width="4.58333" stroke-linecap="round" stroke-linejoin="round" stroke-miterlimit="10" fill="none"/></g><g clip-path="url(#clip10)"><path d="M107.499 256.5C107.499 262.575 102.575 267.499 96.4997 267.499 90.4248 267.499 85.5001 262.575 85.5001 256.5 85.5001 250.425 90.4248 245.5 96.4997 245.5 102.575 245.5 107.499 250.425 107.499 256.5Z" stroke="#8064A2" stroke-width="4.58333" stroke-linejoin="round" stroke-miterlimit="10" fill="#8064A2"/><path d="M138.499 91.4996C138.499 97.5745 133.575 102.499 127.5 102.499 121.425 102.499 116.5 97.5745 116.5 91.4996 116.5 85.4246 121.425 80.4999 127.5 80.4999 133.575 80.4999 138.499 85.4246 138.499 91.4996Z" stroke="#8064A2" stroke-width="4.58333" stroke-linejoin="round" stroke-miterlimit="10" fill="#8064A2"/><path d="M170.499 65.4998C170.499 71.5747 165.575 76.4994 159.5 76.4994 153.425 76.4994 148.5 71.5747 148.5 65.4998 148.5 59.4249 153.425 54.5002 159.5 54.5002 165.575 54.5002 170.499 59.4249 170.499 65.4998Z" stroke="#8064A2" stroke-width="4.58333" stroke-linejoin="round" stroke-miterlimit="10" fill="#8064A2"/><path d="M202.499 54.4998C202.499 60.5747 197.575 65.4994 191.5 65.4994 185.425 65.4994 180.5 60.5747 180.5 54.4998 180.5 48.4249 185.425 43.5002 191.5 43.5002 197.575 43.5002 202.499 48.4249 202.499 54.4998Z" stroke="#8064A2" stroke-width="4.58333" stroke-linejoin="round" stroke-miterlimit="10" fill="#8064A2"/><path d="M233.499 50.4997C233.499 56.5746 228.574 61.4993 222.5 61.4993 216.425 61.4993 211.5 56.5746 211.5 50.4997 211.5 44.4247 216.425 39.5 222.5 39.5 228.574 39.5 233.499 44.4247 233.499 50.4997Z" stroke="#8064A2" stroke-width="4.58333" stroke-linejoin="round" stroke-miterlimit="10" fill="#8064A2"/><path d="M265.499 50.4997C265.499 56.5746 260.574 61.4993 254.499 61.4993 248.425 61.4993 243.5 56.5746 243.5 50.4997 243.5 44.4247 248.425 39.5 254.499 39.5 260.574 39.5 265.499 44.4247 265.499 50.4997Z" stroke="#8064A2" stroke-width="4.58333" stroke-linejoin="round" stroke-miterlimit="10" fill="#8064A2"/><path d="M297.499 50.4997C297.499 56.5746 292.575 61.4993 286.5 61.4993 280.425 61.4993 275.5 56.5746 275.5 50.4997 275.5 44.4247 280.425 39.5 286.5 39.5 292.575 39.5 297.499 44.4247 297.499 50.4997Z" stroke="#8064A2" stroke-width="4.58333" stroke-linejoin="round" stroke-miterlimit="10" fill="#8064A2"/></g><g clip-path="url(#clip11)"><text fill="#595959" font-family="Calibri,Calibri_MSFontService,sans-serif" font-weight="700" font-size="23" transform="matrix(1 0 0 1 47.5295 263)">0</text></g><g clip-path="url(#clip12)"><text fill="#595959" font-family="Calibri,Calibri_MSFontService,sans-serif" font-weight="700" font-size="23" transform="matrix(1 0 0 1 29.7917 222)">0.2</text></g><g clip-path="url(#clip13)"><text fill="#595959" font-family="Calibri,Calibri_MSFontService,sans-serif" font-weight="700" font-size="23" transform="matrix(1 0 0 1 29.7917 181)">0.4</text></g><g clip-path="url(#clip14)"><text fill="#595959" font-family="Calibri,Calibri_MSFontService,sans-serif" font-weight="700" font-size="23" transform="matrix(1 0 0 1 29.7917 140)">0.6</text></g><g clip-path="url(#clip15)"><text fill="#595959" font-family="Calibri,Calibri_MSFontService,sans-serif" font-weight="700" font-size="23" transform="matrix(1 0 0 1 29.7917 98)">0.8</text></g><g clip-path="url(#clip16)"><text fill="#595959" font-family="Calibri,Calibri_MSFontService,sans-serif" font-weight="700" font-size="23" transform="matrix(1 0 0 1 47.5295 57)">1</text></g><g clip-path="url(#clip17)"><text fill="#595959" font-family="Calibri,Calibri_MSFontService,sans-serif" font-weight="700" font-size="23" transform="matrix(1 0 0 1 90.4328 293)">1</text></g><g clip-path="url(#clip18)"><text fill="#595959" font-family="Calibri,Calibri_MSFontService,sans-serif" font-weight="700" font-size="23" transform="matrix(1 0 0 1 122.094 293)">2</text></g><g clip-path="url(#clip19)"><text fill="#595959" font-family="Calibri,Calibri_MSFontService,sans-serif" font-weight="700" font-size="23" transform="matrix(1 0 0 1 153.756 293)">3</text></g><g clip-path="url(#clip20)"><text fill="#595959" font-family="Calibri,Calibri_MSFontService,sans-serif" font-weight="700" font-size="23" transform="matrix(1 0 0 1 185.417 293)">4</text></g><g clip-path="url(#clip21)"><text fill="#595959" font-family="Calibri,Calibri_MSFontService,sans-serif" font-weight="700" font-size="23" transform="matrix(1 0 0 1 217.079 293)">5</text></g><g clip-path="url(#clip22)"><text fill="#595959" font-family="Calibri,Calibri_MSFontService,sans-serif" font-weight="700" font-size="23" transform="matrix(1 0 0 1 248.74 293)">6</text></g><g clip-path="url(#clip23)"><text fill="#595959" font-family="Calibri,Calibri_MSFontService,sans-serif" font-weight="700" font-size="23" transform="matrix(1 0 0 1 280.401 293)">7</text></g><g clip-path="url(#clip24)"><text fill="#595959" font-family="Calibri,Calibri_MSFontService,sans-serif" font-weight="700" font-size="23" transform="matrix(1 0 0 1 146.676 335)">Last IMFs</text></g></g></svg>