<svg width="387" height="407" xmlns="http://www.w3.org/2000/svg" xmlns:xlink="http://www.w3.org/1999/xlink" xml:space="preserve" overflow="hidden"><defs><clipPath id="clip0"><rect x="0" y="0" width="387" height="407"/></clipPath><clipPath id="clip1"><rect x="0" y="0" width="386" height="406"/></clipPath><clipPath id="clip2"><rect x="0" y="0" width="386" height="406"/></clipPath><clipPath id="clip3"><rect x="80" y="50" width="259" height="217"/></clipPath><clipPath id="clip4"><rect x="0" y="0" width="386" height="406"/></clipPath><clipPath id="clip5"><rect x="80" y="50" width="259" height="217"/></clipPath><clipPath id="clip6"><rect x="0" y="0" width="386" height="406"/></clipPath><clipPath id="clip7"><rect x="80" y="50" width="259" height="217"/></clipPath><clipPath id="clip8"><rect x="0" y="0" width="386" height="406"/></clipPath><clipPath id="clip9"><rect x="80" y="50" width="259" height="217"/></clipPath><clipPath id="clip10"><rect x="0" y="0" width="386" height="406"/></clipPath><clipPath id="clip11"><rect x="0" y="0" width="386" height="406"/></clipPath><clipPath id="clip12"><rect x="0" y="0" width="386" height="406"/></clipPath><clipPath id="clip13"><rect x="0" y="0" width="386" height="406"/></clipPath><clipPath id="clip14"><rect x="0" y="0" width="386" height="406"/></clipPath><clipPath id="clip15"><rect x="0" y="0" width="386" height="406"/></clipPath><clipPath id="clip16"><rect x="0" y="0" width="386" height="406"/></clipPath><clipPath id="clip17"><rect x="0" y="0" width="386" height="406"/></clipPath><clipPath id="clip18"><rect x="0" y="0" width="386" height="406"/></clipPath><clipPath id="clip19"><rect x="0" y="0" width="386" height="406"/></clipPath><clipPath id="clip20"><rect x="0" y="0" width="386" height="406"/></clipPath><clipPath id="clip21"><rect x="0" y="0" width="386" height="406"/></clipPath><clipPath id="clip22"><rect x="0" y="0" width="386" height="406"/></clipPath><clipPath id="clip23"><rect x="0" y="0" width="386" height="406"/></clipPath><clipPath id="clip24"><rect x="0" y="0" width="386" height="406"/></clipPath><clipPath id="clip25"><rect x="0" y="0" width="386" height="406"/></clipPath></defs><g clip-path="url(#clip0)"><rect x="0" y="0" width="387" height="407" fill="#FFFFFF"/><g clip-path="url(#clip1)"><path d="M80.4999 220.507 336.5 220.507M80.4999 178.506 336.5 178.506M80.4999 135.505 336.5 135.505M80.4999 93.5033 336.5 93.5033M80.4999 50.5 336.5 50.5" stroke="#D9D9D9" stroke-width="3.4375" stroke-linejoin="round" stroke-miterlimit="10" fill="none"/></g><g clip-path="url(#clip2)"><path d="M80.4999 263.5 336.5 263.501" stroke="#D9D9D9" stroke-width="3.4375" stroke-linejoin="round" stroke-miterlimit="10" fill="none" fill-rule="evenodd"/></g><g clip-path="url(#clip3)"><path d="M92.0001 49.9998 115.004 64.0021 139.005 108.004 162.005 185.006 185.006 242.008 208.007 260.009 232.008 263.009 255.008 263.009 278.009 264 301.01 264.009 325 263.009" stroke="#4F81BD" stroke-width="10.3125" stroke-linecap="round" stroke-linejoin="round" stroke-miterlimit="10" fill="none"/></g><g clip-path="url(#clip4)"><path d="M103.499 50.4997C103.499 56.5746 98.5745 61.4993 92.4996 61.4993 86.4247 61.4993 81.5 56.5746 81.5 50.4997 81.5 44.4247 86.4247 39.5 92.4996 39.5 98.5745 39.5 103.499 44.4247 103.499 50.4997Z" stroke="#4F81BD" stroke-width="3.4375" stroke-linejoin="round" stroke-miterlimit="10" fill="#4F81BD"/><path d="M126.499 63.4997C126.499 69.5747 121.575 74.4994 115.5 74.4994 109.425 74.4994 104.5 69.5747 104.5 63.4997 104.5 57.4248 109.425 52.5001 115.5 52.5001 121.575 52.5001 126.499 57.4248 126.499 63.4997Z" stroke="#4F81BD" stroke-width="3.4375" stroke-linejoin="round" stroke-miterlimit="10" fill="#4F81BD"/><path d="M149.499 107.5C149.499 113.575 144.575 118.499 138.5 118.499 132.425 118.499 127.5 113.575 127.5 107.5 127.5 101.425 132.425 96.5001 138.5 96.5001 144.575 96.5001 149.499 101.425 149.499 107.5Z" stroke="#4F81BD" stroke-width="3.4375" stroke-linejoin="round" stroke-miterlimit="10" fill="#4F81BD"/><path d="M172.499 185.5C172.499 191.575 167.575 196.499 161.5 196.499 155.425 196.499 150.5 191.575 150.5 185.5 150.5 179.425 155.425 174.5 161.5 174.5 167.575 174.5 172.499 179.425 172.499 185.5Z" stroke="#4F81BD" stroke-width="3.4375" stroke-linejoin="round" stroke-miterlimit="10" fill="#4F81BD"/><path d="M196.499 242.5C196.499 248.575 191.575 253.499 185.5 253.499 179.425 253.499 174.5 248.575 174.5 242.5 174.5 236.425 179.425 231.5 185.5 231.5 191.575 231.5 196.499 236.425 196.499 242.5Z" stroke="#4F81BD" stroke-width="3.4375" stroke-linejoin="round" stroke-miterlimit="10" fill="#4F81BD"/><path d="M219.499 259.5C219.499 265.575 214.575 270.499 208.5 270.499 202.425 270.499 197.5 265.575 197.5 259.5 197.5 253.425 202.425 248.5 208.5 248.5 214.575 248.5 219.499 253.425 219.499 259.5Z" stroke="#4F81BD" stroke-width="3.4375" stroke-linejoin="round" stroke-miterlimit="10" fill="#4F81BD"/><path d="M242.499 262.5C242.499 268.575 237.575 273.499 231.5 273.499 225.425 273.499 220.5 268.575 220.5 262.5 220.5 256.425 225.425 251.5 231.5 251.5 237.575 251.5 242.499 256.425 242.499 262.5Z" stroke="#4F81BD" stroke-width="3.4375" stroke-linejoin="round" stroke-miterlimit="10" fill="#4F81BD"/><path d="M265.499 263.5C265.499 269.575 260.574 274.499 254.499 274.499 248.425 274.499 243.5 269.575 243.5 263.5 243.5 257.425 248.425 252.5 254.499 252.5 260.574 252.5 265.499 257.425 265.499 263.5Z" stroke="#4F81BD" stroke-width="3.4375" stroke-linejoin="round" stroke-miterlimit="10" fill="#4F81BD"/><path d="M289.499 263.5C289.499 269.575 284.574 274.499 278.5 274.499 272.425 274.499 267.5 269.575 267.5 263.5 267.5 257.425 272.425 252.5 278.5 252.5 284.574 252.5 289.499 257.425 289.499 263.5Z" stroke="#4F81BD" stroke-width="3.4375" stroke-linejoin="round" stroke-miterlimit="10" fill="#4F81BD"/><path d="M312.499 263.5C312.499 269.575 307.575 274.499 301.5 274.499 295.425 274.499 290.5 269.575 290.5 263.5 290.5 257.425 295.425 252.5 301.5 252.5 307.575 252.5 312.499 257.425 312.499 263.5Z" stroke="#4F81BD" stroke-width="3.4375" stroke-linejoin="round" stroke-miterlimit="10" fill="#4F81BD"/><path d="M335.499 263.5C335.499 269.575 330.575 274.499 324.5 274.499 318.425 274.499 313.5 269.575 313.5 263.5 313.5 257.425 318.425 252.5 324.5 252.5 330.575 252.5 335.499 257.425 335.499 263.5Z" stroke="#4F81BD" stroke-width="3.4375" stroke-linejoin="round" stroke-miterlimit="10" fill="#4F81BD"/></g><g clip-path="url(#clip5)"><path d="M92.5 50.5 115.504 63.5023 138.505 107.504 161.505 184.506 185.506 241.508 208.507 258.509 231.508 262.509 254.509 263.509 278.509 263.509 301.51 263.5 324.5 263.509" stroke="#C0504D" stroke-width="4.58333" stroke-linecap="round" stroke-linejoin="round" stroke-miterlimit="10" fill="none"/></g><g clip-path="url(#clip6)"><path d="M103.499 50.4997C103.499 56.5746 98.5745 61.4993 92.4996 61.4993 86.4247 61.4993 81.5 56.5746 81.5 50.4997 81.5 44.4247 86.4247 39.5 92.4996 39.5 98.5745 39.5 103.499 44.4247 103.499 50.4997Z" stroke="#C0504D" stroke-width="4.58333" stroke-linejoin="round" stroke-miterlimit="10" fill="#C0504D"/><path d="M126.499 63.4997C126.499 69.5747 121.575 74.4994 115.5 74.4994 109.425 74.4994 104.5 69.5747 104.5 63.4997 104.5 57.4248 109.425 52.5001 115.5 52.5001 121.575 52.5001 126.499 57.4248 126.499 63.4997Z" stroke="#C0504D" stroke-width="4.58333" stroke-linejoin="round" stroke-miterlimit="10" fill="#C0504D"/><path d="M149.499 107.5C149.499 113.575 144.575 118.499 138.5 118.499 132.425 118.499 127.5 113.575 127.5 107.5 127.5 101.425 132.425 96.5001 138.5 96.5001 144.575 96.5001 149.499 101.425 149.499 107.5Z" stroke="#C0504D" stroke-width="4.58333" stroke-linejoin="round" stroke-miterlimit="10" fill="#C0504D"/><path d="M172.499 184.5C172.499 190.575 167.575 195.499 161.5 195.499 155.425 195.499 150.5 190.575 150.5 184.5 150.5 178.425 155.425 173.5 161.5 173.5 167.575 173.5 172.499 178.425 172.499 184.5Z" stroke="#C0504D" stroke-width="4.58333" stroke-linejoin="round" stroke-miterlimit="10" fill="#C0504D"/><path d="M196.499 241.5C196.499 247.575 191.575 252.499 185.5 252.499 179.425 252.499 174.5 247.575 174.5 241.5 174.5 235.425 179.425 230.5 185.5 230.5 191.575 230.5 196.499 235.425 196.499 241.5Z" stroke="#C0504D" stroke-width="4.58333" stroke-linejoin="round" stroke-miterlimit="10" fill="#C0504D"/><path d="M219.499 258.5C219.499 264.575 214.575 269.499 208.5 269.499 202.425 269.499 197.5 264.575 197.5 258.5 197.5 252.425 202.425 247.5 208.5 247.5 214.575 247.5 219.499 252.425 219.499 258.5Z" stroke="#C0504D" stroke-width="4.58333" stroke-linejoin="round" stroke-miterlimit="10" fill="#C0504D"/><path d="M242.499 262.5C242.499 268.575 237.575 273.499 231.5 273.499 225.425 273.499 220.5 268.575 220.5 262.5 220.5 256.425 225.425 251.5 231.5 251.5 237.575 251.5 242.499 256.425 242.499 262.5Z" stroke="#C0504D" stroke-width="4.58333" stroke-linejoin="round" stroke-miterlimit="10" fill="#C0504D"/><path d="M265.499 263.5C265.499 269.575 260.574 274.499 254.499 274.499 248.425 274.499 243.5 269.575 243.5 263.5 243.5 257.425 248.425 252.5 254.499 252.5 260.574 252.5 265.499 257.425 265.499 263.5Z" stroke="#C0504D" stroke-width="4.58333" stroke-linejoin="round" stroke-miterlimit="10" fill="#C0504D"/><path d="M289.499 263.5C289.499 269.575 284.574 274.499 278.5 274.499 272.425 274.499 267.5 269.575 267.5 263.5 267.5 257.425 272.425 252.5 278.5 252.5 284.574 252.5 289.499 257.425 289.499 263.5Z" stroke="#C0504D" stroke-width="4.58333" stroke-linejoin="round" stroke-miterlimit="10" fill="#C0504D"/><path d="M312.499 263.5C312.499 269.575 307.575 274.499 301.5 274.499 295.425 274.499 290.5 269.575 290.5 263.5 290.5 257.425 295.425 252.5 301.5 252.5 307.575 252.5 312.499 257.425 312.499 263.5Z" stroke="#C0504D" stroke-width="4.58333" stroke-linejoin="round" stroke-miterlimit="10" fill="#C0504D"/><path d="M335.499 263.5C335.499 269.575 330.575 274.499 324.5 274.499 318.425 274.499 313.5 269.575 313.5 263.5 313.5 257.425 318.425 252.5 324.5 252.5 330.575 252.5 335.499 257.425 335.499 263.5Z" stroke="#C0504D" stroke-width="4.58333" stroke-linejoin="round" stroke-miterlimit="10" fill="#C0504D"/></g><g clip-path="url(#clip7)"><path d="M92.5 50.5 115.504 66.5024 138.505 104.504 161.505 160.505 185.506 225.508 208.507 258.509 231.508 261.509 254.509 261.509 278.509 262.509 301.51 263.509 324.5 263.5" stroke="#9BBB59" stroke-width="4.58333" stroke-linecap="round" stroke-linejoin="round" stroke-miterlimit="10" fill="none"/></g><g clip-path="url(#clip8)"><path d="M103.499 50.4997C103.499 56.5746 98.5745 61.4993 92.4996 61.4993 86.4247 61.4993 81.5 56.5746 81.5 50.4997 81.5 44.4247 86.4247 39.5 92.4996 39.5 98.5745 39.5 103.499 44.4247 103.499 50.4997Z" stroke="#9BBB59" stroke-width="4.58333" stroke-linejoin="round" stroke-miterlimit="10" fill="#9BBB59"/><path d="M126.499 66.4998C126.499 72.5748 121.575 77.4995 115.5 77.4995 109.425 77.4995 104.5 72.5748 104.5 66.4998 104.5 60.4249 109.425 55.5002 115.5 55.5002 121.575 55.5002 126.499 60.4249 126.499 66.4998Z" stroke="#9BBB59" stroke-width="4.58333" stroke-linejoin="round" stroke-miterlimit="10" fill="#9BBB59"/><path d="M149.499 104.5C149.499 110.575 144.575 115.499 138.5 115.499 132.425 115.499 127.5 110.575 127.5 104.5 127.5 98.4247 132.425 93.5 138.5 93.5 144.575 93.5 149.499 98.4247 149.499 104.5Z" stroke="#9BBB59" stroke-width="4.58333" stroke-linejoin="round" stroke-miterlimit="10" fill="#9BBB59"/><path d="M172.499 160.5C172.499 166.575 167.575 171.499 161.5 171.499 155.425 171.499 150.5 166.575 150.5 160.5 150.5 154.425 155.425 149.5 161.5 149.5 167.575 149.5 172.499 154.425 172.499 160.5Z" stroke="#9BBB59" stroke-width="4.58333" stroke-linejoin="round" stroke-miterlimit="10" fill="#9BBB59"/><path d="M196.499 225.5C196.499 231.575 191.575 236.499 185.5 236.499 179.425 236.499 174.5 231.575 174.5 225.5 174.5 219.425 179.425 214.5 185.5 214.5 191.575 214.5 196.499 219.425 196.499 225.5Z" stroke="#9BBB59" stroke-width="4.58333" stroke-linejoin="round" stroke-miterlimit="10" fill="#9BBB59"/><path d="M219.499 258.5C219.499 264.575 214.575 269.499 208.5 269.499 202.425 269.499 197.5 264.575 197.5 258.5 197.5 252.425 202.425 247.5 208.5 247.5 214.575 247.5 219.499 252.425 219.499 258.5Z" stroke="#9BBB59" stroke-width="4.58333" stroke-linejoin="round" stroke-miterlimit="10" fill="#9BBB59"/><path d="M242.499 261.5C242.499 267.575 237.575 272.499 231.5 272.499 225.425 272.499 220.5 267.575 220.5 261.5 220.5 255.425 225.425 250.5 231.5 250.5 237.575 250.5 242.499 255.425 242.499 261.5Z" stroke="#9BBB59" stroke-width="4.58333" stroke-linejoin="round" stroke-miterlimit="10" fill="#9BBB59"/><path d="M265.499 261.5C265.499 267.575 260.574 272.499 254.499 272.499 248.425 272.499 243.5 267.575 243.5 261.5 243.5 255.425 248.425 250.5 254.499 250.5 260.574 250.5 265.499 255.425 265.499 261.5Z" stroke="#9BBB59" stroke-width="4.58333" stroke-linejoin="round" stroke-miterlimit="10" fill="#9BBB59"/><path d="M289.499 262.5C289.499 268.575 284.574 273.499 278.5 273.499 272.425 273.499 267.5 268.575 267.5 262.5 267.5 256.425 272.425 251.5 278.5 251.5 284.574 251.5 289.499 256.425 289.499 262.5Z" stroke="#9BBB59" stroke-width="4.58333" stroke-linejoin="round" stroke-miterlimit="10" fill="#9BBB59"/><path d="M312.499 263.5C312.499 269.575 307.575 274.499 301.5 274.499 295.425 274.499 290.5 269.575 290.5 263.5 290.5 257.425 295.425 252.5 301.5 252.5 307.575 252.5 312.499 257.425 312.499 263.5Z" stroke="#9BBB59" stroke-width="4.58333" stroke-linejoin="round" stroke-miterlimit="10" fill="#9BBB59"/><path d="M335.499 263.5C335.499 269.575 330.575 274.499 324.5 274.499 318.425 274.499 313.5 269.575 313.5 263.5 313.5 257.425 318.425 252.5 324.5 252.5 330.575 252.5 335.499 257.425 335.499 263.5Z" stroke="#9BBB59" stroke-width="4.58333" stroke-linejoin="round" stroke-miterlimit="10" fill="#9BBB59"/></g><g clip-path="url(#clip9)"><path d="M92.5 50.5 115.504 55.502 138.505 73.5026 161.505 120.504 185.506 190.506 208.507 239.508 231.508 254.509 254.509 259.509 278.509 263.5 301.51 262.509 324.5 263.509" stroke="#8064A2" stroke-width="4.58333" stroke-linecap="round" stroke-linejoin="round" stroke-miterlimit="10" fill="none"/></g><g clip-path="url(#clip10)"><path d="M103.499 50.4997C103.499 56.5746 98.5745 61.4993 92.4996 61.4993 86.4247 61.4993 81.5 56.5746 81.5 50.4997 81.5 44.4247 86.4247 39.5 92.4996 39.5 98.5745 39.5 103.499 44.4247 103.499 50.4997Z" stroke="#8064A2" stroke-width="4.58333" stroke-linejoin="round" stroke-miterlimit="10" fill="#8064A2"/><path d="M126.499 55.4998C126.499 61.5748 121.575 66.4995 115.5 66.4995 109.425 66.4995 104.5 61.5748 104.5 55.4998 104.5 49.4249 109.425 44.5002 115.5 44.5002 121.575 44.5002 126.499 49.4249 126.499 55.4998Z" stroke="#8064A2" stroke-width="4.58333" stroke-linejoin="round" stroke-miterlimit="10" fill="#8064A2"/><path d="M149.499 73.4997C149.499 79.5746 144.575 84.4993 138.5 84.4993 132.425 84.4993 127.5 79.5746 127.5 73.4997 127.5 67.4248 132.425 62.5001 138.5 62.5001 144.575 62.5001 149.499 67.4248 149.499 73.4997Z" stroke="#8064A2" stroke-width="4.58333" stroke-linejoin="round" stroke-miterlimit="10" fill="#8064A2"/><path d="M172.499 120.5C172.499 126.575 167.575 131.499 161.5 131.499 155.425 131.499 150.5 126.575 150.5 120.5 150.5 114.425 155.425 109.5 161.5 109.5 167.575 109.5 172.499 114.425 172.499 120.5Z" stroke="#8064A2" stroke-width="4.58333" stroke-linejoin="round" stroke-miterlimit="10" fill="#8064A2"/><path d="M196.499 190.5C196.499 196.575 191.575 201.499 185.5 201.499 179.425 201.499 174.5 196.575 174.5 190.5 174.5 184.425 179.425 179.5 185.5 179.5 191.575 179.5 196.499 184.425 196.499 190.5Z" stroke="#8064A2" stroke-width="4.58333" stroke-linejoin="round" stroke-miterlimit="10" fill="#8064A2"/><path d="M219.499 239.5C219.499 245.575 214.575 250.499 208.5 250.499 202.425 250.499 197.5 245.575 197.5 239.5 197.5 233.425 202.425 228.5 208.5 228.5 214.575 228.5 219.499 233.425 219.499 239.5Z" stroke="#8064A2" stroke-width="4.58333" stroke-linejoin="round" stroke-miterlimit="10" fill="#8064A2"/><path d="M242.499 254.499C242.499 260.574 237.575 265.499 231.5 265.499 225.425 265.499 220.5 260.574 220.5 254.499 220.5 248.425 225.425 243.5 231.5 243.5 237.575 243.5 242.499 248.425 242.499 254.499Z" stroke="#8064A2" stroke-width="4.58333" stroke-linejoin="round" stroke-miterlimit="10" fill="#8064A2"/><path d="M265.499 259.5C265.499 265.575 260.574 270.499 254.499 270.499 248.425 270.499 243.5 265.575 243.5 259.5 243.5 253.425 248.425 248.5 254.499 248.5 260.574 248.5 265.499 253.425 265.499 259.5Z" stroke="#8064A2" stroke-width="4.58333" stroke-linejoin="round" stroke-miterlimit="10" fill="#8064A2"/><path d="M289.499 263.5C289.499 269.575 284.574 274.499 278.5 274.499 272.425 274.499 267.5 269.575 267.5 263.5 267.5 257.425 272.425 252.5 278.5 252.5 284.574 252.5 289.499 257.425 289.499 263.5Z" stroke="#8064A2" stroke-width="4.58333" stroke-linejoin="round" stroke-miterlimit="10" fill="#8064A2"/><path d="M312.499 262.5C312.499 268.575 307.575 273.499 301.5 273.499 295.425 273.499 290.5 268.575 290.5 262.5 290.5 256.425 295.425 251.5 301.5 251.5 307.575 251.5 312.499 256.425 312.499 262.5Z" stroke="#8064A2" stroke-width="4.58333" stroke-linejoin="round" stroke-miterlimit="10" fill="#8064A2"/><path d="M335.499 263.5C335.499 269.575 330.575 274.499 324.5 274.499 318.425 274.499 313.5 269.575 313.5 263.5 313.5 257.425 318.425 252.5 324.5 252.5 330.575 252.5 335.499 257.425 335.499 263.5Z" stroke="#8064A2" stroke-width="4.58333" stroke-linejoin="round" stroke-miterlimit="10" fill="#8064A2"/></g><g clip-path="url(#clip11)"><text fill="#595959" font-family="Calibri,Calibri_MSFontService,sans-serif" font-weight="700" font-size="23" transform="matrix(1 0 0 1 47.5295 270)">0</text></g><g clip-path="url(#clip12)"><text fill="#595959" font-family="Calibri,Calibri_MSFontService,sans-serif" font-weight="700" font-size="23" transform="matrix(1 0 0 1 29.7917 228)">0.2</text></g><g clip-path="url(#clip13)"><text fill="#595959" font-family="Calibri,Calibri_MSFontService,sans-serif" font-weight="700" font-size="23" transform="matrix(1 0 0 1 29.7917 185)">0.4</text></g><g clip-path="url(#clip14)"><text fill="#595959" font-family="Calibri,Calibri_MSFontService,sans-serif" font-weight="700" font-size="23" transform="matrix(1 0 0 1 29.7917 142)">0.6</text></g><g clip-path="url(#clip15)"><text fill="#595959" font-family="Calibri,Calibri_MSFontService,sans-serif" font-weight="700" font-size="23" transform="matrix(1 0 0 1 29.7917 100)">0.8</text></g><g clip-path="url(#clip16)"><text fill="#595959" font-family="Calibri,Calibri_MSFontService,sans-serif" font-weight="700" font-size="23" transform="matrix(1 0 0 1 47.5295 57)">1</text></g><g clip-path="url(#clip17)"><text fill="#595959" font-family="Calibri,Calibri_MSFontService,sans-serif" font-weight="700" font-size="23" transform="matrix(6.12323e-17 -1 1 6.12323e-17 100.047 308)">0.1</text></g><g clip-path="url(#clip18)"><text fill="#595959" font-family="Calibri,Calibri_MSFontService,sans-serif" font-weight="700" font-size="23" transform="matrix(6.12323e-17 -1 1 6.12323e-17 146.552 308)">0.3</text></g><g clip-path="url(#clip19)"><text fill="#595959" font-family="Calibri,Calibri_MSFontService,sans-serif" font-weight="700" font-size="23" transform="matrix(6.12323e-17 -1 1 6.12323e-17 193.056 308)">0.5</text></g><g clip-path="url(#clip20)"><text fill="#595959" font-family="Calibri,Calibri_MSFontService,sans-serif" font-weight="700" font-size="23" transform="matrix(6.12323e-17 -1 1 6.12323e-17 239.561 308)">0.7</text></g><g clip-path="url(#clip21)"><text fill="#595959" font-family="Calibri,Calibri_MSFontService,sans-serif" font-weight="700" font-size="23" transform="matrix(6.12323e-17 -1 1 6.12323e-17 286.066 308)">0.9</text></g><g clip-path="url(#clip22)"><text fill="#595959" font-family="Calibri,Calibri_MSFontService,sans-serif" font-weight="700" font-size="23" transform="matrix(6.12323e-17 -1 1 6.12323e-17 332.571 308)">1.1</text></g><g clip-path="url(#clip23)"><text fill="#595959" font-family="Calibri,Calibri_MSFontService,sans-serif" font-weight="700" font-size="23" transform="matrix(1 0 0 1 125.982 343)">cut</text></g><g clip-path="url(#clip24)"><text fill="#595959" font-family="Calibri,Calibri_MSFontService,sans-serif" font-weight="700" font-size="23" transform="matrix(1 0 0 1 155.82 343)">-</text></g><g clip-path="url(#clip25)"><text fill="#595959" font-family="Calibri,Calibri_MSFontService,sans-serif" font-weight="700" font-size="23" transform="matrix(1 0 0 1 162.832 343)">off frequency</text></g></g></svg>