<svg width="364" height="407" xmlns="http://www.w3.org/2000/svg" xmlns:xlink="http://www.w3.org/1999/xlink" xml:space="preserve" overflow="hidden"><defs><clipPath id="clip0"><rect x="0" y="0" width="364" height="407"/></clipPath><clipPath id="clip1"><rect x="0" y="0" width="363" height="406"/></clipPath><clipPath id="clip2"><rect x="0" y="0" width="363" height="406"/></clipPath><clipPath id="clip3"><rect x="80" y="50" width="236" height="217"/></clipPath><clipPath id="clip4"><rect x="0" y="0" width="363" height="406"/></clipPath><clipPath id="clip5"><rect x="80" y="50" width="236" height="217"/></clipPath><clipPath id="clip6"><rect x="0" y="0" width="363" height="406"/></clipPath><clipPath id="clip7"><rect x="80" y="50" width="236" height="217"/></clipPath><clipPath id="clip8"><rect x="0" y="0" width="363" height="406"/></clipPath><clipPath id="clip9"><rect x="80" y="50" width="236" height="217"/></clipPath><clipPath id="clip10"><rect x="0" y="0" width="363" height="406"/></clipPath><clipPath id="clip11"><rect x="0" y="0" width="363" height="406"/></clipPath><clipPath id="clip12"><rect x="0" y="0" width="363" height="406"/></clipPath><clipPath id="clip13"><rect x="0" y="0" width="363" height="406"/></clipPath><clipPath id="clip14"><rect x="0" y="0" width="363" height="406"/></clipPath><clipPath id="clip15"><rect x="0" y="0" width="363" height="406"/></clipPath><clipPath id="clip16"><rect x="0" y="0" width="363" height="406"/></clipPath><clipPath id="clip17"><rect x="0" y="0" width="363" height="406"/></clipPath><clipPath id="clip18"><rect x="0" y="0" width="363" height="406"/></clipPath><clipPath id="clip19"><rect x="0" y="0" width="363" height="406"/></clipPath><clipPath id="clip20"><rect x="0" y="0" width="363" height="406"/></clipPath><clipPath id="clip21"><rect x="0" y="0" width="363" height="406"/></clipPath><clipPath id="clip22"><rect x="0" y="0" width="363" height="406"/></clipPath><clipPath id="clip23"><rect x="0" y="0" width="363" height="406"/></clipPath><clipPath id="clip24"><rect x="0" y="0" width="363" height="406"/></clipPath><clipPath id="clip25"><rect x="0" y="0" width="363" height="406"/></clipPath><clipPath id="clip26"><rect x="0" y="0" width="363" height="406"/></clipPath></defs><g clip-path="url(#clip0)"><rect x="0" y="0" width="364" height="407" fill="#FFFFFF"/><g clip-path="url(#clip1)"><path d="M80.4999 220.507 313.5 220.507M80.4999 178.506 313.5 178.506M80.4999 135.505 313.5 135.505M80.4999 93.5033 313.5 93.5033M80.4999 50.5 313.5 50.5" stroke="#D9D9D9" stroke-width="3.4375" stroke-linejoin="round" stroke-miterlimit="10" fill="none"/></g><g clip-path="url(#clip2)"><path d="M80.4999 263.5 313.5 263.501" stroke="#D9D9D9" stroke-width="3.4375" stroke-linejoin="round" stroke-miterlimit="10" fill="none" fill-rule="evenodd"/></g><g clip-path="url(#clip3)"><path d="M96.9999 49.9998 130.004 180.006 164.005 259.009 197.006 263.009 230.008 264 264.009 263.009 297 262.009" stroke="#4F81BD" stroke-width="10.3125" stroke-linecap="round" stroke-linejoin="round" stroke-miterlimit="10" fill="none"/></g><g clip-path="url(#clip4)"><path d="M108.499 50.4997C108.499 56.5746 103.575 61.4993 97.4998 61.4993 91.4248 61.4993 86.5001 56.5746 86.5001 50.4997 86.5001 44.4247 91.4248 39.5 97.4998 39.5 103.575 39.5 108.499 44.4247 108.499 50.4997Z" stroke="#4F81BD" stroke-width="3.4375" stroke-linejoin="round" stroke-miterlimit="10" fill="#4F81BD"/><path d="M141.499 180.5C141.499 186.575 136.575 191.499 130.5 191.499 124.425 191.499 119.5 186.575 119.5 180.5 119.5 174.425 124.425 169.5 130.5 169.5 136.575 169.5 141.499 174.425 141.499 180.5Z" stroke="#4F81BD" stroke-width="3.4375" stroke-linejoin="round" stroke-miterlimit="10" fill="#4F81BD"/><path d="M174.499 259.5C174.499 265.575 169.575 270.499 163.5 270.499 157.425 270.499 152.5 265.575 152.5 259.5 152.5 253.425 157.425 248.5 163.5 248.5 169.575 248.5 174.499 253.425 174.499 259.5Z" stroke="#4F81BD" stroke-width="3.4375" stroke-linejoin="round" stroke-miterlimit="10" fill="#4F81BD"/><path d="M207.499 263.5C207.499 269.575 202.575 274.499 196.5 274.499 190.425 274.499 185.5 269.575 185.5 263.5 185.5 257.425 190.425 252.5 196.5 252.5 202.575 252.5 207.499 257.425 207.499 263.5Z" stroke="#4F81BD" stroke-width="3.4375" stroke-linejoin="round" stroke-miterlimit="10" fill="#4F81BD"/><path d="M241.499 263.5C241.499 269.575 236.575 274.499 230.5 274.499 224.425 274.499 219.5 269.575 219.5 263.5 219.5 257.425 224.425 252.5 230.5 252.5 236.575 252.5 241.499 257.425 241.499 263.5Z" stroke="#4F81BD" stroke-width="3.4375" stroke-linejoin="round" stroke-miterlimit="10" fill="#4F81BD"/><path d="M274.499 263.5C274.499 269.575 269.575 274.499 263.5 274.499 257.425 274.499 252.5 269.575 252.5 263.5 252.5 257.425 257.425 252.5 263.5 252.5 269.575 252.5 274.499 257.425 274.499 263.5Z" stroke="#4F81BD" stroke-width="3.4375" stroke-linejoin="round" stroke-miterlimit="10" fill="#4F81BD"/><path d="M307.499 262.5C307.499 268.575 302.575 273.499 296.5 273.499 290.425 273.499 285.5 268.575 285.5 262.5 285.5 256.425 290.425 251.5 296.5 251.5 302.575 251.5 307.499 256.425 307.499 262.5Z" stroke="#4F81BD" stroke-width="3.4375" stroke-linejoin="round" stroke-miterlimit="10" fill="#4F81BD"/></g><g clip-path="url(#clip5)"><path d="M97.5001 50.5 130.504 179.506 163.506 258.509 196.507 263.509 230.508 263.5 263.509 263.509 296.5 262.509" stroke="#C0504D" stroke-width="4.58333" stroke-linecap="round" stroke-linejoin="round" stroke-miterlimit="10" fill="none"/></g><g clip-path="url(#clip6)"><path d="M108.499 50.4997C108.499 56.5746 103.575 61.4993 97.4998 61.4993 91.4248 61.4993 86.5001 56.5746 86.5001 50.4997 86.5001 44.4247 91.4248 39.5 97.4998 39.5 103.575 39.5 108.499 44.4247 108.499 50.4997Z" stroke="#C0504D" stroke-width="4.58333" stroke-linejoin="round" stroke-miterlimit="10" fill="#C0504D"/><path d="M141.499 179.5C141.499 185.575 136.575 190.499 130.5 190.499 124.425 190.499 119.5 185.575 119.5 179.5 119.5 173.425 124.425 168.5 130.5 168.5 136.575 168.5 141.499 173.425 141.499 179.5Z" stroke="#C0504D" stroke-width="4.58333" stroke-linejoin="round" stroke-miterlimit="10" fill="#C0504D"/><path d="M174.499 258.5C174.499 264.575 169.575 269.499 163.5 269.499 157.425 269.499 152.5 264.575 152.5 258.5 152.5 252.425 157.425 247.5 163.5 247.5 169.575 247.5 174.499 252.425 174.499 258.5Z" stroke="#C0504D" stroke-width="4.58333" stroke-linejoin="round" stroke-miterlimit="10" fill="#C0504D"/><path d="M207.499 263.5C207.499 269.575 202.575 274.499 196.5 274.499 190.425 274.499 185.5 269.575 185.5 263.5 185.5 257.425 190.425 252.5 196.5 252.5 202.575 252.5 207.499 257.425 207.499 263.5Z" stroke="#C0504D" stroke-width="4.58333" stroke-linejoin="round" stroke-miterlimit="10" fill="#C0504D"/><path d="M241.499 263.5C241.499 269.575 236.575 274.499 230.5 274.499 224.425 274.499 219.5 269.575 219.5 263.5 219.5 257.425 224.425 252.5 230.5 252.5 236.575 252.5 241.499 257.425 241.499 263.5Z" stroke="#C0504D" stroke-width="4.58333" stroke-linejoin="round" stroke-miterlimit="10" fill="#C0504D"/><path d="M274.499 263.5C274.499 269.575 269.575 274.499 263.5 274.499 257.425 274.499 252.5 269.575 252.5 263.5 252.5 257.425 257.425 252.5 263.5 252.5 269.575 252.5 274.499 257.425 274.499 263.5Z" stroke="#C0504D" stroke-width="4.58333" stroke-linejoin="round" stroke-miterlimit="10" fill="#C0504D"/><path d="M307.499 262.5C307.499 268.575 302.575 273.499 296.5 273.499 290.425 273.499 285.5 268.575 285.5 262.5 285.5 256.425 290.425 251.5 296.5 251.5 302.575 251.5 307.499 256.425 307.499 262.5Z" stroke="#C0504D" stroke-width="4.58333" stroke-linejoin="round" stroke-miterlimit="10" fill="#C0504D"/></g><g clip-path="url(#clip7)"><path d="M97.5001 50.5 130.504 151.505 163.506 257.509 196.507 260.509 230.508 262.509 263.509 263.509 296.5 263.5" stroke="#9BBB59" stroke-width="4.58333" stroke-linecap="round" stroke-linejoin="round" stroke-miterlimit="10" fill="none"/></g><g clip-path="url(#clip8)"><path d="M108.499 50.4997C108.499 56.5746 103.575 61.4993 97.4998 61.4993 91.4248 61.4993 86.5001 56.5746 86.5001 50.4997 86.5001 44.4247 91.4248 39.5 97.4998 39.5 103.575 39.5 108.499 44.4247 108.499 50.4997Z" stroke="#9BBB59" stroke-width="4.58333" stroke-linejoin="round" stroke-miterlimit="10" fill="#9BBB59"/><path d="M141.499 151.5C141.499 157.575 136.575 162.499 130.5 162.499 124.425 162.499 119.5 157.575 119.5 151.5 119.5 145.425 124.425 140.5 130.5 140.5 136.575 140.5 141.499 145.425 141.499 151.5Z" stroke="#9BBB59" stroke-width="4.58333" stroke-linejoin="round" stroke-miterlimit="10" fill="#9BBB59"/><path d="M174.499 257.5C174.499 263.575 169.575 268.499 163.5 268.499 157.425 268.499 152.5 263.575 152.5 257.5 152.5 251.425 157.425 246.5 163.5 246.5 169.575 246.5 174.499 251.425 174.499 257.5Z" stroke="#9BBB59" stroke-width="4.58333" stroke-linejoin="round" stroke-miterlimit="10" fill="#9BBB59"/><path d="M207.499 260.5C207.499 266.575 202.575 271.499 196.5 271.499 190.425 271.499 185.5 266.575 185.5 260.5 185.5 254.425 190.425 249.5 196.5 249.5 202.575 249.5 207.499 254.425 207.499 260.5Z" stroke="#9BBB59" stroke-width="4.58333" stroke-linejoin="round" stroke-miterlimit="10" fill="#9BBB59"/><path d="M241.499 262.5C241.499 268.575 236.575 273.499 230.5 273.499 224.425 273.499 219.5 268.575 219.5 262.5 219.5 256.425 224.425 251.5 230.5 251.5 236.575 251.5 241.499 256.425 241.499 262.5Z" stroke="#9BBB59" stroke-width="4.58333" stroke-linejoin="round" stroke-miterlimit="10" fill="#9BBB59"/><path d="M274.499 263.5C274.499 269.575 269.575 274.499 263.5 274.499 257.425 274.499 252.5 269.575 252.5 263.5 252.5 257.425 257.425 252.5 263.5 252.5 269.575 252.5 274.499 257.425 274.499 263.5Z" stroke="#9BBB59" stroke-width="4.58333" stroke-linejoin="round" stroke-miterlimit="10" fill="#9BBB59"/><path d="M307.499 263.5C307.499 269.575 302.575 274.499 296.5 274.499 290.425 274.499 285.5 269.575 285.5 263.5 285.5 257.425 290.425 252.5 296.5 252.5 302.575 252.5 307.499 257.425 307.499 263.5Z" stroke="#9BBB59" stroke-width="4.58333" stroke-linejoin="round" stroke-miterlimit="10" fill="#9BBB59"/></g><g clip-path="url(#clip9)"><path d="M97.5001 50.5 130.504 116.504 163.506 239.508 196.507 259.509 230.508 262.509 263.509 263.5 296.5 262.509" stroke="#8064A2" stroke-width="4.58333" stroke-linecap="round" stroke-linejoin="round" stroke-miterlimit="10" fill="none"/></g><g clip-path="url(#clip10)"><path d="M108.499 50.4997C108.499 56.5746 103.575 61.4993 97.4998 61.4993 91.4248 61.4993 86.5001 56.5746 86.5001 50.4997 86.5001 44.4247 91.4248 39.5 97.4998 39.5 103.575 39.5 108.499 44.4247 108.499 50.4997Z" stroke="#8064A2" stroke-width="4.58333" stroke-linejoin="round" stroke-miterlimit="10" fill="#8064A2"/><path d="M141.499 116.5C141.499 122.575 136.575 127.499 130.5 127.499 124.425 127.499 119.5 122.575 119.5 116.5 119.5 110.425 124.425 105.5 130.5 105.5 136.575 105.5 141.499 110.425 141.499 116.5Z" stroke="#8064A2" stroke-width="4.58333" stroke-linejoin="round" stroke-miterlimit="10" fill="#8064A2"/><path d="M174.499 239.5C174.499 245.575 169.575 250.499 163.5 250.499 157.425 250.499 152.5 245.575 152.5 239.5 152.5 233.425 157.425 228.5 163.5 228.5 169.575 228.5 174.499 233.425 174.499 239.5Z" stroke="#8064A2" stroke-width="4.58333" stroke-linejoin="round" stroke-miterlimit="10" fill="#8064A2"/><path d="M207.499 259.5C207.499 265.575 202.575 270.499 196.5 270.499 190.425 270.499 185.5 265.575 185.5 259.5 185.5 253.425 190.425 248.5 196.5 248.5 202.575 248.5 207.499 253.425 207.499 259.5Z" stroke="#8064A2" stroke-width="4.58333" stroke-linejoin="round" stroke-miterlimit="10" fill="#8064A2"/><path d="M241.499 262.5C241.499 268.575 236.575 273.499 230.5 273.499 224.425 273.499 219.5 268.575 219.5 262.5 219.5 256.425 224.425 251.5 230.5 251.5 236.575 251.5 241.499 256.425 241.499 262.5Z" stroke="#8064A2" stroke-width="4.58333" stroke-linejoin="round" stroke-miterlimit="10" fill="#8064A2"/><path d="M274.499 263.5C274.499 269.575 269.575 274.499 263.5 274.499 257.425 274.499 252.5 269.575 252.5 263.5 252.5 257.425 257.425 252.5 263.5 252.5 269.575 252.5 274.499 257.425 274.499 263.5Z" stroke="#8064A2" stroke-width="4.58333" stroke-linejoin="round" stroke-miterlimit="10" fill="#8064A2"/><path d="M307.499 262.5C307.499 268.575 302.575 273.499 296.5 273.499 290.425 273.499 285.5 268.575 285.5 262.5 285.5 256.425 290.425 251.5 296.5 251.5 302.575 251.5 307.499 256.425 307.499 262.5Z" stroke="#8064A2" stroke-width="4.58333" stroke-linejoin="round" stroke-miterlimit="10" fill="#8064A2"/></g><g clip-path="url(#clip11)"><text fill="#595959" font-family="Calibri,Calibri_MSFontService,sans-serif" font-weight="700" font-size="23" transform="matrix(1 0 0 1 47.5295 270)">0</text></g><g clip-path="url(#clip12)"><text fill="#595959" font-family="Calibri,Calibri_MSFontService,sans-serif" font-weight="700" font-size="23" transform="matrix(1 0 0 1 29.7917 228)">0.2</text></g><g clip-path="url(#clip13)"><text fill="#595959" font-family="Calibri,Calibri_MSFontService,sans-serif" font-weight="700" font-size="23" transform="matrix(1 0 0 1 29.7917 185)">0.4</text></g><g clip-path="url(#clip14)"><text fill="#595959" font-family="Calibri,Calibri_MSFontService,sans-serif" font-weight="700" font-size="23" transform="matrix(1 0 0 1 29.7917 142)">0.6</text></g><g clip-path="url(#clip15)"><text fill="#595959" font-family="Calibri,Calibri_MSFontService,sans-serif" font-weight="700" font-size="23" transform="matrix(1 0 0 1 29.7917 100)">0.8</text></g><g clip-path="url(#clip16)"><text fill="#595959" font-family="Calibri,Calibri_MSFontService,sans-serif" font-weight="700" font-size="23" transform="matrix(1 0 0 1 47.5295 57)">1</text></g><g clip-path="url(#clip17)"><text fill="#595959" font-family="Calibri,Calibri_MSFontService,sans-serif" font-weight="700" font-size="23" transform="matrix(6.12323e-17 -1 1 6.12323e-17 105.069 308)">0.1</text></g><g clip-path="url(#clip18)"><text fill="#595959" font-family="Calibri,Calibri_MSFontService,sans-serif" font-weight="700" font-size="23" transform="matrix(6.12323e-17 -1 1 6.12323e-17 138.368 308)">0.2</text></g><g clip-path="url(#clip19)"><text fill="#595959" font-family="Calibri,Calibri_MSFontService,sans-serif" font-weight="700" font-size="23" transform="matrix(6.12323e-17 -1 1 6.12323e-17 171.666 308)">0.3</text></g><g clip-path="url(#clip20)"><text fill="#595959" font-family="Calibri,Calibri_MSFontService,sans-serif" font-weight="700" font-size="23" transform="matrix(6.12323e-17 -1 1 6.12323e-17 204.965 308)">0.4</text></g><g clip-path="url(#clip21)"><text fill="#595959" font-family="Calibri,Calibri_MSFontService,sans-serif" font-weight="700" font-size="23" transform="matrix(6.12323e-17 -1 1 6.12323e-17 238.263 308)">0.5</text></g><g clip-path="url(#clip22)"><text fill="#595959" font-family="Calibri,Calibri_MSFontService,sans-serif" font-weight="700" font-size="23" transform="matrix(6.12323e-17 -1 1 6.12323e-17 271.562 308)">0.6</text></g><g clip-path="url(#clip23)"><text fill="#595959" font-family="Calibri,Calibri_MSFontService,sans-serif" font-weight="700" font-size="23" transform="matrix(6.12323e-17 -1 1 6.12323e-17 304.86 308)">0.7</text></g><g clip-path="url(#clip24)"><text fill="#595959" font-family="Calibri,Calibri_MSFontService,sans-serif" font-weight="700" font-size="23" transform="matrix(1 0 0 1 102.642 348)">cut</text></g><g clip-path="url(#clip25)"><text fill="#595959" font-family="Calibri,Calibri_MSFontService,sans-serif" font-weight="700" font-size="23" transform="matrix(1 0 0 1 132.479 348)">-</text></g><g clip-path="url(#clip26)"><text fill="#595959" font-family="Calibri,Calibri_MSFontService,sans-serif" font-weight="700" font-size="23" transform="matrix(1 0 0 1 139.492 348)">off frequency</text></g></g></svg>