<svg width="1087" height="659" xmlns="http://www.w3.org/2000/svg" xmlns:xlink="http://www.w3.org/1999/xlink" xml:space="preserve" overflow="hidden"><defs><clipPath id="clip0"><rect x="-1" y="-1" width="1087" height="659"/></clipPath><clipPath id="clip1"><rect x="0" y="0" width="1083" height="655"/></clipPath><clipPath id="clip2"><rect x="218" y="50" width="818" height="398"/></clipPath><clipPath id="clip3"><rect x="218" y="50" width="818" height="398"/></clipPath><clipPath id="clip4"><rect x="218" y="50" width="818" height="398"/></clipPath><clipPath id="clip5"><rect x="218" y="50" width="818" height="398"/></clipPath><clipPath id="clip6"><rect x="0" y="0" width="1083" height="655"/></clipPath><clipPath id="clip7"><rect x="0" y="0" width="1083" height="655"/></clipPath><clipPath id="clip8"><rect x="0" y="0" width="1083" height="655"/></clipPath><clipPath id="clip9"><rect x="0" y="0" width="1083" height="655"/></clipPath><clipPath id="clip10"><rect x="0" y="0" width="1083" height="655"/></clipPath><clipPath id="clip11"><rect x="0" y="0" width="1083" height="655"/></clipPath><clipPath id="clip12"><rect x="0" y="0" width="1083" height="655"/></clipPath><clipPath id="clip13"><rect x="0" y="0" width="1083" height="655"/></clipPath><clipPath id="clip14"><rect x="0" y="0" width="1083" height="655"/></clipPath><clipPath id="clip15"><rect x="0" y="0" width="1083" height="655"/></clipPath><clipPath id="clip16"><rect x="0" y="0" width="1083" height="655"/></clipPath><clipPath id="clip17"><rect x="0" y="0" width="1083" height="655"/></clipPath><clipPath id="clip18"><rect x="0" y="0" width="1083" height="655"/></clipPath><clipPath id="clip19"><rect x="0" y="0" width="1083" height="655"/></clipPath><clipPath id="clip20"><rect x="0" y="0" width="1083" height="655"/></clipPath><clipPath id="clip21"><rect x="0" y="0" width="1083" height="655"/></clipPath><clipPath id="clip22"><rect x="0" y="0" width="1083" height="655"/></clipPath><clipPath id="clip23"><rect x="0" y="0" width="1083" height="655"/></clipPath><clipPath id="clip24"><rect x="0" y="0" width="1083" height="655"/></clipPath><clipPath id="clip25"><rect x="0" y="0" width="1083" height="655"/></clipPath><clipPath id="clip26"><rect x="0" y="0" width="1083" height="655"/></clipPath><clipPath id="clip27"><rect x="0" y="0" width="1083" height="655"/></clipPath><clipPath id="clip28"><rect x="0" y="0" width="1083" height="655"/></clipPath></defs><g clip-path="url(#clip0)" transform="translate(1 1)"><rect x="0" y="0" width="1084" height="656" fill="#FFFFFF"/><g clip-path="url(#clip1)"><path d="M218.5 365.512 1033.5 365.512M218.5 286.51 1033.5 286.51M218.5 208.507 1033.5 208.507M218.5 129.504 1033.5 129.504M218.5 50.5 1033.5 50.5" stroke="#D9D9D9" stroke-width="3.4375" stroke-linejoin="round" stroke-miterlimit="10" fill="none"/></g><g clip-path="url(#clip2)"><path d="M236.008 49.9998 253.008 49.9998 253.008 445 236.008 445ZM353.012 232.008 369.012 232.008 369.012 445 353.012 445ZM469.015 318.01 486.016 318.01 486.016 445 469.015 445ZM702.023 357.012 719.024 357.012 719.024 445 702.023 445ZM819.027 392.013 835.027 392.013 835.027 445 819.027 445ZM935.031 394.013 952.031 394.013 952.031 445 935.031 445Z" fill="#4F81BD"/></g><g clip-path="url(#clip3)"><path d="M257.008 49.9998 274.009 49.9998 274.009 445 257.008 445ZM374.012 232.008 391.013 232.008 391.013 445 374.012 445ZM490.016 316.01 507.017 316.01 507.017 445 490.016 445ZM723.024 359.012 740.024 359.012 740.024 445 723.024 445ZM840.028 386.013 857.028 386.013 857.028 445 840.028 445ZM956.031 384.013 973.032 384.013 973.032 445 956.031 445Z" fill="#C0504D"/></g><g clip-path="url(#clip4)"><path d="M279.009 71.0023 295.01 71.0023 295.01 445 279.009 445ZM395.013 268.009 412.014 268.009 412.014 445 395.013 445ZM512.017 49.9998 528.017 49.9998 528.017 445 512.017 445ZM628.021 170.006 645.021 170.006 645.021 445 628.021 445ZM861.028 206.007 878.029 206.007 878.029 445 861.028 445ZM978.032 172.006 994.033 172.006 994.033 445 978.032 445Z" fill="#9BBB59"/></g><g clip-path="url(#clip5)"><path d="M300.01 49.9998 316.01 49.9998 316.01 445 300.01 445ZM416.014 226.007 433.014 226.007 433.014 445 416.014 445ZM533.017 304.01 549.018 304.01 549.018 445 533.017 445ZM766.025 382.013 782.026 382.013 782.026 445 766.025 445ZM882.029 386.013 899.029 386.013 899.029 445 882.029 445ZM999.033 371.012 1015.03 371.012 1015.03 445 999.033 445Z" fill="#8064A2"/></g><g clip-path="url(#clip6)"><path d="M218.5 444.5 1033.5 444.5" stroke="#D9D9D9" stroke-width="3.4375" stroke-linejoin="round" stroke-miterlimit="10" fill="none" fill-rule="evenodd"/></g><g clip-path="url(#clip7)"><text fill="#595959" font-family="Calibri,Calibri_MSFontService,sans-serif" font-weight="700" font-size="41" transform="matrix(1 0 0 1 158.905 456)">0</text></g><g clip-path="url(#clip8)"><text fill="#595959" font-family="Calibri,Calibri_MSFontService,sans-serif" font-weight="700" font-size="41" transform="matrix(1 0 0 1 126.981 377)">0.2</text></g><g clip-path="url(#clip9)"><text fill="#595959" font-family="Calibri,Calibri_MSFontService,sans-serif" font-weight="700" font-size="41" transform="matrix(1 0 0 1 126.981 299)">0.4</text></g><g clip-path="url(#clip10)"><text fill="#595959" font-family="Calibri,Calibri_MSFontService,sans-serif" font-weight="700" font-size="41" transform="matrix(1 0 0 1 126.981 220)">0.6</text></g><g clip-path="url(#clip11)"><text fill="#595959" font-family="Calibri,Calibri_MSFontService,sans-serif" font-weight="700" font-size="41" transform="matrix(1 0 0 1 126.981 141)">0.8</text></g><g clip-path="url(#clip12)"><text fill="#595959" font-family="Calibri,Calibri_MSFontService,sans-serif" font-weight="700" font-size="41" transform="matrix(1 0 0 1 158.905 62)">1</text></g><g clip-path="url(#clip13)"><text fill="#595959" font-family="Calibri,Calibri_MSFontService,sans-serif" font-weight="700" font-size="41" transform="matrix(1 0 0 1 235.23 510)">EMD</text></g><g clip-path="url(#clip14)"><text fill="#595959" font-family="Calibri,Calibri_MSFontService,sans-serif" font-weight="700" font-size="41" transform="matrix(1 0 0 1 349.594 510)">VMD</text></g><g clip-path="url(#clip15)"><text fill="#595959" font-family="Calibri,Calibri_MSFontService,sans-serif" font-weight="700" font-size="41" transform="matrix(1 0 0 1 468.817 510)">FDM</text></g><g clip-path="url(#clip16)"><text fill="#595959" font-family="Calibri,Calibri_MSFontService,sans-serif" font-weight="700" font-size="41" transform="matrix(1 0 0 1 586.848 510)">EWT</text></g><g clip-path="url(#clip17)"><text fill="#595959" font-family="Calibri,Calibri_MSFontService,sans-serif" font-weight="700" font-size="41" transform="matrix(1 0 0 1 702.312 510)">MAF</text></g><g clip-path="url(#clip18)"><text fill="#595959" font-family="Calibri,Calibri_MSFontService,sans-serif" font-weight="700" font-size="41" transform="matrix(1 0 0 1 836.19 510)">IIR</text></g><g clip-path="url(#clip19)"><text fill="#595959" font-family="Calibri,Calibri_MSFontService,sans-serif" font-weight="700" font-size="41" transform="matrix(1 0 0 1 923.754 510)">EMD2</text></g><g clip-path="url(#clip20)"><text fill="#595959" font-family="Calibri,Calibri_MSFontService,sans-serif" font-weight="700" font-size="46" transform="matrix(6.12323e-17 -1 1 6.12323e-17 101.292 515)">Normalized mean value </text></g><g clip-path="url(#clip21)"><rect x="252" y="578" width="23" height="23.0001" fill="#4F81BD"/></g><g clip-path="url(#clip22)"><text fill="#595959" font-family="Calibri,Calibri_MSFontService,sans-serif" font-weight="700" font-size="41" transform="matrix(1 0 0 1 284.459 601)">PRD</text></g><g clip-path="url(#clip23)"><rect x="390" y="578" width="22.9997" height="23.0001" fill="#C0504D"/></g><g clip-path="url(#clip24)"><text fill="#595959" font-family="Calibri,Calibri_MSFontService,sans-serif" font-weight="700" font-size="41" transform="matrix(1 0 0 1 422.705 601)">RMSE</text></g><g clip-path="url(#clip25)"><rect x="556" y="578" width="23.0001" height="23.0001" fill="#9BBB59"/></g><g clip-path="url(#clip26)"><text fill="#595959" font-family="Calibri,Calibri_MSFontService,sans-serif" font-weight="700" font-size="41" transform="matrix(1 0 0 1 588.657 601)">SMAPE</text></g><g clip-path="url(#clip27)"><rect x="746" y="578" width="23.0001" height="23.0001" fill="#8064A2"/></g><g clip-path="url(#clip28)"><text fill="#595959" font-family="Calibri,Calibri_MSFontService,sans-serif" font-weight="700" font-size="41" transform="matrix(1 0 0 1 778.351 601)">NSR</text></g><rect x="0.499836" y="0.499836" width="1084" height="656" stroke="#D9D9D9" stroke-width="3.4375" stroke-linejoin="round" stroke-miterlimit="10" fill="none"/></g></svg>