<svg width="352" height="412" xmlns="http://www.w3.org/2000/svg" xmlns:xlink="http://www.w3.org/1999/xlink" xml:space="preserve" overflow="hidden"><defs><clipPath id="clip0"><rect x="0" y="0" width="352" height="412"/></clipPath><clipPath id="clip1"><rect x="0" y="0" width="352" height="412"/></clipPath><clipPath id="clip2"><rect x="0" y="0" width="352" height="412"/></clipPath><clipPath id="clip3"><rect x="80" y="50" width="225" height="217"/></clipPath><clipPath id="clip4"><rect x="0" y="0" width="352" height="412"/></clipPath><clipPath id="clip5"><rect x="80" y="50" width="225" height="217"/></clipPath><clipPath id="clip6"><rect x="0" y="0" width="352" height="412"/></clipPath><clipPath id="clip7"><rect x="80" y="50" width="225" height="217"/></clipPath><clipPath id="clip8"><rect x="0" y="0" width="352" height="412"/></clipPath><clipPath id="clip9"><rect x="80" y="50" width="225" height="217"/></clipPath><clipPath id="clip10"><rect x="0" y="0" width="352" height="412"/></clipPath><clipPath id="clip11"><rect x="0" y="0" width="352" height="412"/></clipPath><clipPath id="clip12"><rect x="0" y="0" width="352" height="412"/></clipPath><clipPath id="clip13"><rect x="0" y="0" width="352" height="412"/></clipPath><clipPath id="clip14"><rect x="0" y="0" width="352" height="412"/></clipPath><clipPath id="clip15"><rect x="0" y="0" width="352" height="412"/></clipPath><clipPath id="clip16"><rect x="0" y="0" width="352" height="412"/></clipPath><clipPath id="clip17"><rect x="0" y="0" width="352" height="412"/></clipPath><clipPath id="clip18"><rect x="0" y="0" width="352" height="412"/></clipPath><clipPath id="clip19"><rect x="0" y="0" width="352" height="412"/></clipPath><clipPath id="clip20"><rect x="0" y="0" width="352" height="412"/></clipPath><clipPath id="clip21"><rect x="0" y="0" width="352" height="412"/></clipPath></defs><g clip-path="url(#clip0)"><rect x="0" y="0" width="352" height="412" fill="#FFFFFF"/><g clip-path="url(#clip1)"><path d="M80.4999 221.507 302.5 221.507M80.4999 178.506 302.5 178.506M80.4999 135.505 302.5 135.505M80.4999 93.5033 302.5 93.5033M80.4999 50.5 302.5 50.5" stroke="#D9D9D9" stroke-width="3.4375" stroke-linejoin="round" stroke-miterlimit="10" fill="none"/></g><g clip-path="url(#clip2)"><path d="M80.4999 264.5 302.5 264.5" stroke="#D9D9D9" stroke-width="3.4375" stroke-linejoin="round" stroke-miterlimit="10" fill="none" fill-rule="evenodd"/></g><g clip-path="url(#clip3)"><path d="M94.5 50.5 121.504 107.504 149.505 161.505 177.506 207.507 205.507 242.508 232.508 262.509 260.509 264.5 288.5 249.508" stroke="#4F81BD" stroke-width="4.58333" stroke-linecap="round" stroke-linejoin="round" stroke-miterlimit="10" fill="none"/></g><g clip-path="url(#clip4)"><path d="M105.499 50.4997C105.499 56.5746 100.575 61.4993 94.4997 61.4993 88.4247 61.4993 83.5 56.5746 83.5 50.4997 83.5 44.4247 88.4247 39.5 94.4997 39.5 100.575 39.5 105.499 44.4247 105.499 50.4997Z" stroke="#4F81BD" stroke-width="4.58333" stroke-linejoin="round" stroke-miterlimit="10" fill="#4F81BD"/><path d="M132.499 107.5C132.499 113.575 127.575 118.499 121.5 118.499 115.425 118.499 110.5 113.575 110.5 107.5 110.5 101.425 115.425 96.5001 121.5 96.5001 127.575 96.5001 132.499 101.425 132.499 107.5Z" stroke="#4F81BD" stroke-width="4.58333" stroke-linejoin="round" stroke-miterlimit="10" fill="#4F81BD"/><path d="M160.499 161.5C160.499 167.575 155.575 172.499 149.5 172.499 143.425 172.499 138.5 167.575 138.5 161.5 138.5 155.425 143.425 150.5 149.5 150.5 155.575 150.5 160.499 155.425 160.499 161.5Z" stroke="#4F81BD" stroke-width="4.58333" stroke-linejoin="round" stroke-miterlimit="10" fill="#4F81BD"/><path d="M188.499 207.5C188.499 213.575 183.574 218.499 177.499 218.499 171.425 218.499 166.5 213.575 166.5 207.5 166.5 201.425 171.425 196.5 177.499 196.5 183.574 196.5 188.499 201.425 188.499 207.5Z" stroke="#4F81BD" stroke-width="4.58333" stroke-linejoin="round" stroke-miterlimit="10" fill="#4F81BD"/><path d="M216.499 242.5C216.499 248.575 211.575 253.499 205.5 253.499 199.425 253.499 194.5 248.575 194.5 242.5 194.5 236.425 199.425 231.5 205.5 231.5 211.575 231.5 216.499 236.425 216.499 242.5Z" stroke="#4F81BD" stroke-width="4.58333" stroke-linejoin="round" stroke-miterlimit="10" fill="#4F81BD"/><path d="M243.499 262.5C243.499 268.575 238.574 273.499 232.499 273.499 226.425 273.499 221.5 268.575 221.5 262.5 221.5 256.425 226.425 251.5 232.499 251.5 238.574 251.5 243.499 256.425 243.499 262.5Z" stroke="#4F81BD" stroke-width="4.58333" stroke-linejoin="round" stroke-miterlimit="10" fill="#4F81BD"/><path d="M271.499 264.5C271.499 270.575 266.575 275.499 260.5 275.499 254.425 275.499 249.5 270.575 249.5 264.5 249.5 258.425 254.425 253.5 260.5 253.5 266.575 253.5 271.499 258.425 271.499 264.5Z" stroke="#4F81BD" stroke-width="4.58333" stroke-linejoin="round" stroke-miterlimit="10" fill="#4F81BD"/><path d="M299.499 249.5C299.499 255.575 294.574 260.499 288.5 260.499 282.425 260.499 277.5 255.575 277.5 249.5 277.5 243.425 282.425 238.5 288.5 238.5 294.574 238.5 299.499 243.425 299.499 249.5Z" stroke="#4F81BD" stroke-width="4.58333" stroke-linejoin="round" stroke-miterlimit="10" fill="#4F81BD"/></g><g clip-path="url(#clip5)"><path d="M94.5 50.5 121.504 109.504 149.505 164.506 177.506 211.507 205.507 246.508 232.508 264.5 260.509 262.509 288.5 241.508" stroke="#C0504D" stroke-width="4.58333" stroke-linecap="round" stroke-linejoin="round" stroke-miterlimit="10" fill="none"/></g><g clip-path="url(#clip6)"><path d="M105.499 50.4997C105.499 56.5746 100.575 61.4993 94.4997 61.4993 88.4247 61.4993 83.5 56.5746 83.5 50.4997 83.5 44.4247 88.4247 39.5 94.4997 39.5 100.575 39.5 105.499 44.4247 105.499 50.4997Z" stroke="#C0504D" stroke-width="4.58333" stroke-linejoin="round" stroke-miterlimit="10" fill="#C0504D"/><path d="M132.499 109.5C132.499 115.575 127.575 120.499 121.5 120.499 115.425 120.499 110.5 115.575 110.5 109.5 110.5 103.425 115.425 98.5002 121.5 98.5002 127.575 98.5002 132.499 103.425 132.499 109.5Z" stroke="#C0504D" stroke-width="4.58333" stroke-linejoin="round" stroke-miterlimit="10" fill="#C0504D"/><path d="M160.499 164.5C160.499 170.575 155.575 175.499 149.5 175.499 143.425 175.499 138.5 170.575 138.5 164.5 138.5 158.425 143.425 153.5 149.5 153.5 155.575 153.5 160.499 158.425 160.499 164.5Z" stroke="#C0504D" stroke-width="4.58333" stroke-linejoin="round" stroke-miterlimit="10" fill="#C0504D"/><path d="M188.499 211.5C188.499 217.574 183.574 222.499 177.499 222.499 171.425 222.499 166.5 217.574 166.5 211.5 166.5 205.425 171.425 200.5 177.499 200.5 183.574 200.5 188.499 205.425 188.499 211.5Z" stroke="#C0504D" stroke-width="4.58333" stroke-linejoin="round" stroke-miterlimit="10" fill="#C0504D"/><path d="M216.499 246.5C216.499 252.575 211.575 257.499 205.5 257.499 199.425 257.499 194.5 252.575 194.5 246.5 194.5 240.425 199.425 235.5 205.5 235.5 211.575 235.5 216.499 240.425 216.499 246.5Z" stroke="#C0504D" stroke-width="4.58333" stroke-linejoin="round" stroke-miterlimit="10" fill="#C0504D"/><path d="M243.499 264.5C243.499 270.575 238.574 275.499 232.499 275.499 226.425 275.499 221.5 270.575 221.5 264.5 221.5 258.425 226.425 253.5 232.499 253.5 238.574 253.5 243.499 258.425 243.499 264.5Z" stroke="#C0504D" stroke-width="4.58333" stroke-linejoin="round" stroke-miterlimit="10" fill="#C0504D"/><path d="M271.499 262.5C271.499 268.575 266.575 273.499 260.5 273.499 254.425 273.499 249.5 268.575 249.5 262.5 249.5 256.425 254.425 251.5 260.5 251.5 266.575 251.5 271.499 256.425 271.499 262.5Z" stroke="#C0504D" stroke-width="4.58333" stroke-linejoin="round" stroke-miterlimit="10" fill="#C0504D"/><path d="M299.499 241.5C299.499 247.575 294.574 252.499 288.5 252.499 282.425 252.499 277.5 247.575 277.5 241.5 277.5 235.425 282.425 230.5 288.5 230.5 294.574 230.5 299.499 235.425 299.499 241.5Z" stroke="#C0504D" stroke-width="4.58333" stroke-linejoin="round" stroke-miterlimit="10" fill="#C0504D"/></g><g clip-path="url(#clip7)"><path d="M94.5 50.5 121.504 117.504 149.505 177.506 177.506 221.507 205.507 250.508 232.508 264.5 260.509 206.507 288.5 105.504" stroke="#9BBB59" stroke-width="4.58333" stroke-linecap="round" stroke-linejoin="round" stroke-miterlimit="10" fill="none"/></g><g clip-path="url(#clip8)"><path d="M105.499 50.4997C105.499 56.5746 100.575 61.4993 94.4997 61.4993 88.4247 61.4993 83.5 56.5746 83.5 50.4997 83.5 44.4247 88.4247 39.5 94.4997 39.5 100.575 39.5 105.499 44.4247 105.499 50.4997Z" stroke="#9BBB59" stroke-width="4.58333" stroke-linejoin="round" stroke-miterlimit="10" fill="#9BBB59"/><path d="M132.499 117.5C132.499 123.575 127.575 128.499 121.5 128.499 115.425 128.499 110.5 123.575 110.5 117.5 110.5 111.425 115.425 106.5 121.5 106.5 127.575 106.5 132.499 111.425 132.499 117.5Z" stroke="#9BBB59" stroke-width="4.58333" stroke-linejoin="round" stroke-miterlimit="10" fill="#9BBB59"/><path d="M160.499 177.499C160.499 183.574 155.575 188.499 149.5 188.499 143.425 188.499 138.5 183.574 138.5 177.499 138.5 171.425 143.425 166.5 149.5 166.5 155.575 166.5 160.499 171.425 160.499 177.499Z" stroke="#9BBB59" stroke-width="4.58333" stroke-linejoin="round" stroke-miterlimit="10" fill="#9BBB59"/><path d="M188.499 221.499C188.499 227.574 183.574 232.499 177.499 232.499 171.425 232.499 166.5 227.574 166.5 221.499 166.5 215.425 171.425 210.5 177.499 210.5 183.574 210.5 188.499 215.425 188.499 221.499Z" stroke="#9BBB59" stroke-width="4.58333" stroke-linejoin="round" stroke-miterlimit="10" fill="#9BBB59"/><path d="M216.499 250.5C216.499 256.575 211.575 261.499 205.5 261.499 199.425 261.499 194.5 256.575 194.5 250.5 194.5 244.425 199.425 239.5 205.5 239.5 211.575 239.5 216.499 244.425 216.499 250.5Z" stroke="#9BBB59" stroke-width="4.58333" stroke-linejoin="round" stroke-miterlimit="10" fill="#9BBB59"/><path d="M243.499 264.5C243.499 270.575 238.574 275.499 232.499 275.499 226.425 275.499 221.5 270.575 221.5 264.5 221.5 258.425 226.425 253.5 232.499 253.5 238.574 253.5 243.499 258.425 243.499 264.5Z" stroke="#9BBB59" stroke-width="4.58333" stroke-linejoin="round" stroke-miterlimit="10" fill="#9BBB59"/><path d="M271.499 206.5C271.499 212.575 266.575 217.499 260.5 217.499 254.425 217.499 249.5 212.575 249.5 206.5 249.5 200.425 254.425 195.5 260.5 195.5 266.575 195.5 271.499 200.425 271.499 206.5Z" stroke="#9BBB59" stroke-width="4.58333" stroke-linejoin="round" stroke-miterlimit="10" fill="#9BBB59"/><path d="M299.499 105.5C299.499 111.575 294.574 116.499 288.5 116.499 282.425 116.499 277.5 111.575 277.5 105.5 277.5 99.4247 282.425 94.5 288.5 94.5 294.574 94.5 299.499 99.4247 299.499 105.5Z" stroke="#9BBB59" stroke-width="4.58333" stroke-linejoin="round" stroke-miterlimit="10" fill="#9BBB59"/></g><g clip-path="url(#clip9)"><path d="M94.5 50.5 121.504 109.504 149.505 169.506 177.506 222.507 205.507 258.509 232.508 264.5 260.509 235.508 288.5 183.506" stroke="#8064A2" stroke-width="4.58333" stroke-linecap="round" stroke-linejoin="round" stroke-miterlimit="10" fill="none"/></g><g clip-path="url(#clip10)"><path d="M105.499 50.4997C105.499 56.5746 100.575 61.4993 94.4997 61.4993 88.4247 61.4993 83.5 56.5746 83.5 50.4997 83.5 44.4247 88.4247 39.5 94.4997 39.5 100.575 39.5 105.499 44.4247 105.499 50.4997Z" stroke="#8064A2" stroke-width="4.58333" stroke-linejoin="round" stroke-miterlimit="10" fill="#8064A2"/><path d="M132.499 109.5C132.499 115.575 127.575 120.499 121.5 120.499 115.425 120.499 110.5 115.575 110.5 109.5 110.5 103.425 115.425 98.5002 121.5 98.5002 127.575 98.5002 132.499 103.425 132.499 109.5Z" stroke="#8064A2" stroke-width="4.58333" stroke-linejoin="round" stroke-miterlimit="10" fill="#8064A2"/><path d="M160.499 169.5C160.499 175.575 155.575 180.499 149.5 180.499 143.425 180.499 138.5 175.575 138.5 169.5 138.5 163.425 143.425 158.5 149.5 158.5 155.575 158.5 160.499 163.425 160.499 169.5Z" stroke="#8064A2" stroke-width="4.58333" stroke-linejoin="round" stroke-miterlimit="10" fill="#8064A2"/><path d="M188.499 222.5C188.499 228.574 183.574 233.499 177.499 233.499 171.425 233.499 166.5 228.574 166.5 222.5 166.5 216.425 171.425 211.5 177.499 211.5 183.574 211.5 188.499 216.425 188.499 222.5Z" stroke="#8064A2" stroke-width="4.58333" stroke-linejoin="round" stroke-miterlimit="10" fill="#8064A2"/><path d="M216.499 258.5C216.499 264.575 211.575 269.499 205.5 269.499 199.425 269.499 194.5 264.575 194.5 258.5 194.5 252.425 199.425 247.5 205.5 247.5 211.575 247.5 216.499 252.425 216.499 258.5Z" stroke="#8064A2" stroke-width="4.58333" stroke-linejoin="round" stroke-miterlimit="10" fill="#8064A2"/><path d="M243.499 264.5C243.499 270.575 238.574 275.499 232.499 275.499 226.425 275.499 221.5 270.575 221.5 264.5 221.5 258.425 226.425 253.5 232.499 253.5 238.574 253.5 243.499 258.425 243.499 264.5Z" stroke="#8064A2" stroke-width="4.58333" stroke-linejoin="round" stroke-miterlimit="10" fill="#8064A2"/><path d="M271.499 235.5C271.499 241.575 266.575 246.499 260.5 246.499 254.425 246.499 249.5 241.575 249.5 235.5 249.5 229.425 254.425 224.5 260.5 224.5 266.575 224.5 271.499 229.425 271.499 235.5Z" stroke="#8064A2" stroke-width="4.58333" stroke-linejoin="round" stroke-miterlimit="10" fill="#8064A2"/><path d="M299.499 183.5C299.499 189.575 294.574 194.499 288.5 194.499 282.425 194.499 277.5 189.575 277.5 183.5 277.5 177.425 282.425 172.5 288.5 172.5 294.574 172.5 299.499 177.425 299.499 183.5Z" stroke="#8064A2" stroke-width="4.58333" stroke-linejoin="round" stroke-miterlimit="10" fill="#8064A2"/></g><g clip-path="url(#clip11)"><text fill="#595959" font-family="Calibri,Calibri_MSFontService,sans-serif" font-weight="700" font-size="23" transform="matrix(1 0 0 1 47.5295 271)">0</text></g><g clip-path="url(#clip12)"><text fill="#595959" font-family="Calibri,Calibri_MSFontService,sans-serif" font-weight="700" font-size="23" transform="matrix(1 0 0 1 29.7917 228)">0.2</text></g><g clip-path="url(#clip13)"><text fill="#595959" font-family="Calibri,Calibri_MSFontService,sans-serif" font-weight="700" font-size="23" transform="matrix(1 0 0 1 29.7917 185)">0.4</text></g><g clip-path="url(#clip14)"><text fill="#595959" font-family="Calibri,Calibri_MSFontService,sans-serif" font-weight="700" font-size="23" transform="matrix(1 0 0 1 29.7917 143)">0.6</text></g><g clip-path="url(#clip15)"><text fill="#595959" font-family="Calibri,Calibri_MSFontService,sans-serif" font-weight="700" font-size="23" transform="matrix(1 0 0 1 29.7917 100)">0.8</text></g><g clip-path="url(#clip16)"><text fill="#595959" font-family="Calibri,Calibri_MSFontService,sans-serif" font-weight="700" font-size="23" transform="matrix(1 0 0 1 47.5295 57)">1</text></g><g clip-path="url(#clip17)"><text fill="#595959" font-family="Calibri,Calibri_MSFontService,sans-serif" font-weight="700" font-size="23" transform="matrix(6.12323e-17 -1 1 6.12323e-17 102.272 313)">100</text></g><g clip-path="url(#clip18)"><text fill="#595959" font-family="Calibri,Calibri_MSFontService,sans-serif" font-weight="700" font-size="23" transform="matrix(6.12323e-17 -1 1 6.12323e-17 157.68 313)">300</text></g><g clip-path="url(#clip19)"><text fill="#595959" font-family="Calibri,Calibri_MSFontService,sans-serif" font-weight="700" font-size="23" transform="matrix(6.12323e-17 -1 1 6.12323e-17 213.088 313)">500</text></g><g clip-path="url(#clip20)"><text fill="#595959" font-family="Calibri,Calibri_MSFontService,sans-serif" font-weight="700" font-size="23" transform="matrix(6.12323e-17 -1 1 6.12323e-17 268.495 313)">700</text></g><g clip-path="url(#clip21)"><text fill="#595959" font-family="Calibri,Calibri_MSFontService,sans-serif" font-weight="700" font-size="23" transform="matrix(1 0 0 1 185.726 349)">k</text></g></g></svg>